<svg xmlns="http://www.w3.org/2000/svg" xmlns:xlink="http://www.w3.org/1999/xlink" viewBox="0 0 42 42"><path d="M 32.037 15.223 C 32.609 15.223 33.157 14.997 33.561 14.593 C 33.965 14.19 34.192 13.643 34.193 13.072 C 34.193 12.502 33.966 11.955 33.562 11.551 C 33.157 11.148 32.609 10.921 32.038 10.921 C 31.466 10.921 30.918 11.148 30.514 11.551 C 30.11 11.955 29.883 12.502 29.883 13.072 C 29.883 13.642 30.11 14.189 30.514 14.592 C 30.918 14.996 31.466 15.222 32.037 15.223 Z M 32.037 11.971 C 32.33 11.971 32.611 12.087 32.818 12.294 C 33.024 12.5 33.141 12.78 33.141 13.072 C 33.141 13.364 33.025 13.645 32.818 13.851 C 32.611 14.058 32.33 14.174 32.038 14.174 C 31.745 14.173 31.464 14.057 31.258 13.851 C 31.051 13.644 30.934 13.364 30.935 13.072 C 30.935 12.78 31.051 12.5 31.258 12.294 C 31.465 12.088 31.745 11.972 32.037 11.971 Z M 24.287 31.059 L 24.287 31.059 C 24.859 31.059 25.407 30.833 25.811 30.429 C 26.215 30.026 26.442 29.479 26.442 28.908 C 26.442 28.338 26.215 27.79 25.811 27.387 C 25.407 26.984 24.859 26.757 24.287 26.757 C 23.716 26.757 23.168 26.984 22.764 27.387 C 22.36 27.791 22.132 28.338 22.132 28.908 C 22.133 29.478 22.36 30.025 22.764 30.428 C 23.167 30.831 23.714 31.058 24.285 31.059 Z M 24.287 27.808 L 24.287 27.807 C 24.58 27.807 24.86 27.923 25.067 28.13 C 25.274 28.336 25.391 28.616 25.391 28.908 C 25.391 29.2 25.275 29.48 25.068 29.687 C 24.861 29.893 24.58 30.009 24.288 30.009 C 23.995 30.009 23.714 29.893 23.507 29.687 C 23.301 29.48 23.184 29.2 23.184 28.908 C 23.185 28.617 23.301 28.337 23.507 28.131 C 23.714 27.924 23.993 27.808 24.286 27.807 Z M 11.049 14.112 C 10.477 14.112 9.929 14.339 9.525 14.742 C 9.121 15.146 8.894 15.693 8.894 16.263 C 8.894 16.834 9.121 17.381 9.525 17.784 C 9.929 18.188 10.477 18.414 11.049 18.414 C 11.62 18.414 12.168 18.187 12.572 17.784 C 12.977 17.381 13.204 16.833 13.203 16.263 C 13.203 15.693 12.976 15.146 12.572 14.743 C 12.168 14.34 11.62 14.113 11.049 14.112 Z M 11.049 17.364 C 10.756 17.364 10.476 17.248 10.269 17.042 C 10.062 16.835 9.946 16.555 9.945 16.263 C 9.945 15.971 10.062 15.691 10.269 15.485 C 10.475 15.278 10.756 15.162 11.049 15.162 C 11.341 15.162 11.622 15.278 11.828 15.484 C 12.035 15.691 12.152 15.971 12.152 16.263 C 12.151 16.555 12.035 16.835 11.828 17.041 C 11.622 17.248 11.341 17.364 11.049 17.364 Z M 9.947 25.374 C 9.376 25.374 8.828 25.601 8.424 26.004 C 8.02 26.407 7.793 26.954 7.793 27.525 C 7.793 28.095 8.02 28.642 8.424 29.045 C 8.828 29.449 9.376 29.675 9.947 29.675 C 10.519 29.675 11.067 29.449 11.471 29.045 C 11.875 28.642 12.102 28.095 12.102 27.525 C 12.101 26.954 11.874 26.408 11.47 26.005 C 11.066 25.601 10.519 25.375 9.947 25.374 Z M 9.947 28.625 C 9.655 28.625 9.374 28.509 9.167 28.303 C 8.96 28.096 8.844 27.816 8.844 27.524 C 8.844 27.232 8.96 26.952 9.167 26.746 C 9.374 26.539 9.655 26.423 9.947 26.423 C 10.24 26.423 10.52 26.539 10.727 26.746 C 10.934 26.952 11.05 27.232 11.05 27.525 C 11.049 27.816 10.933 28.095 10.726 28.302 C 10.52 28.507 10.239 28.623 9.947 28.624 Z M 32.037 17.035 C 33.186 17.036 34.278 16.54 35.033 15.676 C 35.788 14.813 36.131 13.665 35.975 12.53 C 35.818 11.394 35.177 10.382 34.216 9.754 C 33.256 9.126 32.07 8.943 30.965 9.253 C 29.859 9.564 28.942 10.336 28.451 11.372 C 27.959 12.407 27.94 13.605 28.399 14.655 L 24.128 17.234 L 24.128 17.234 C 23.556 16.514 22.761 16.003 21.868 15.782 L 21.985 14.768 C 22.724 14.679 23.372 14.232 23.717 13.573 C 24.062 12.914 24.06 12.128 23.711 11.471 C 23.362 10.814 22.712 10.371 21.972 10.286 C 21.232 10.201 20.498 10.486 20.009 11.046 C 19.52 11.607 19.339 12.372 19.525 13.092 C 19.711 13.812 20.24 14.394 20.94 14.648 L 20.823 15.662 C 20.066 15.671 19.326 15.886 18.683 16.284 C 18.039 16.681 17.517 17.246 17.171 17.918 L 14.928 17.107 C 15.219 15.783 14.813 14.402 13.852 13.444 C 12.89 12.487 11.505 12.086 10.179 12.381 C 8.853 12.675 7.77 13.625 7.306 14.899 C 6.842 16.173 7.061 17.596 7.888 18.672 C 8.714 19.747 10.034 20.328 11.387 20.211 C 12.74 20.094 13.94 19.295 14.569 18.094 L 16.811 18.905 L 16.812 18.905 C 16.593 19.873 16.731 20.888 17.199 21.764 L 12.854 24.828 C 11.931 23.839 10.568 23.389 9.236 23.633 C 7.905 23.877 6.79 24.782 6.281 26.033 C 5.77 27.285 5.936 28.709 6.718 29.812 C 7.501 30.914 8.793 31.542 10.145 31.476 C 11.497 31.411 12.722 30.661 13.393 29.488 C 14.065 28.315 14.091 26.881 13.462 25.685 L 17.805 22.62 L 17.805 22.62 C 18.113 22.956 18.474 23.239 18.874 23.458 L 18.06 25.528 C 18.022 25.526 17.984 25.524 17.947 25.524 C 17.397 25.524 16.88 25.784 16.553 26.225 C 16.226 26.665 16.128 27.235 16.288 27.759 C 16.448 28.284 16.848 28.702 17.366 28.885 C 17.884 29.069 18.459 28.996 18.914 28.69 C 19.37 28.384 19.653 27.88 19.678 27.332 C 19.702 26.784 19.465 26.257 19.039 25.911 L 19.852 23.842 C 20.5 24.005 21.178 24.01 21.828 23.856 L 22.413 25.415 C 21.213 26.056 20.425 27.263 20.321 28.617 C 20.217 29.97 20.813 31.283 21.9 32.098 C 22.988 32.913 24.417 33.118 25.69 32.641 C 26.964 32.164 27.905 31.072 28.187 29.744 C 28.469 28.416 28.052 27.036 27.082 26.084 C 26.112 25.133 24.722 24.742 23.397 25.047 L 22.811 23.488 C 23.608 23.066 24.247 22.399 24.633 21.586 L 28.315 22.778 C 28.125 23.394 28.246 24.064 28.64 24.575 C 29.034 25.086 29.651 25.374 30.297 25.348 C 30.942 25.322 31.534 24.985 31.886 24.445 C 32.238 23.904 32.305 23.227 32.066 22.628 C 31.827 22.029 31.312 21.583 30.684 21.432 C 30.056 21.281 29.394 21.443 28.908 21.867 L 24.959 20.587 C 25.117 19.759 25.018 18.902 24.674 18.132 L 28.945 15.553 C 29.697 16.49 30.835 17.035 32.037 17.035 Z M 32.037 10.159 C 32.811 10.159 33.554 10.466 34.101 11.012 C 34.649 11.558 34.956 12.299 34.956 13.072 C 34.956 13.845 34.649 14.586 34.101 15.132 C 33.554 15.678 32.811 15.985 32.037 15.985 C 31.263 15.985 30.521 15.678 29.974 15.132 C 29.426 14.586 29.119 13.845 29.119 13.072 C 29.12 12.3 29.428 11.56 29.975 11.014 C 30.522 10.468 31.264 10.161 32.037 10.16 Z M 11.049 19.176 C 10.275 19.176 9.532 18.869 8.985 18.323 C 8.438 17.777 8.13 17.036 8.13 16.263 C 8.13 15.49 8.438 14.749 8.985 14.203 C 9.532 13.657 10.275 13.35 11.049 13.35 C 11.823 13.35 12.565 13.657 13.113 14.203 C 13.66 14.749 13.968 15.49 13.968 16.263 C 13.967 17.035 13.659 17.776 13.112 18.322 C 12.565 18.868 11.823 19.175 11.049 19.176 Z M 9.947 30.436 C 9.173 30.436 8.431 30.129 7.884 29.583 C 7.336 29.037 7.029 28.296 7.029 27.523 C 7.029 26.75 7.336 26.009 7.884 25.463 C 8.431 24.917 9.173 24.61 9.947 24.61 C 10.722 24.61 11.464 24.917 12.011 25.463 C 12.559 26.01 12.866 26.75 12.866 27.523 C 12.865 28.296 12.558 29.036 12.01 29.582 C 11.463 30.128 10.721 30.436 9.947 30.436 Z M 17.947 27.93 C 17.672 27.93 17.425 27.765 17.32 27.512 C 17.215 27.259 17.273 26.968 17.467 26.775 C 17.661 26.581 17.953 26.523 18.206 26.628 C 18.46 26.733 18.625 26.98 18.625 27.253 C 18.624 27.627 18.321 27.929 17.947 27.93 Z M 20.505 12.528 C 20.505 12.208 20.632 11.901 20.859 11.674 C 21.086 11.448 21.394 11.32 21.714 11.32 C 22.035 11.32 22.343 11.448 22.57 11.674 C 22.797 11.901 22.924 12.208 22.924 12.528 C 22.924 12.848 22.797 13.155 22.57 13.382 C 22.343 13.608 22.035 13.735 21.714 13.735 C 21.394 13.735 21.086 13.608 20.86 13.381 C 20.633 13.155 20.505 12.848 20.505 12.528 Z M 24.287 25.995 C 25.061 25.995 25.804 26.302 26.351 26.848 C 26.899 27.395 27.206 28.136 27.206 28.908 C 27.206 29.681 26.899 30.422 26.351 30.968 C 25.804 31.515 25.061 31.822 24.287 31.822 C 23.513 31.822 22.771 31.515 22.224 30.968 C 21.676 30.422 21.369 29.681 21.369 28.908 C 21.37 28.136 21.677 27.395 22.224 26.849 C 22.772 26.303 23.514 25.996 24.287 25.995 Z M 20.871 22.919 C 20.046 22.919 19.255 22.592 18.672 22.01 C 18.089 21.428 17.761 20.638 17.761 19.815 C 17.761 18.992 18.089 18.202 18.672 17.62 C 19.255 17.038 20.046 16.711 20.871 16.711 C 21.696 16.711 22.487 17.038 23.07 17.62 C 23.653 18.202 23.981 18.992 23.981 19.815 C 23.98 20.638 23.652 21.427 23.069 22.009 C 22.486 22.591 21.695 22.918 20.871 22.919 Z M 30.214 22.426 C 30.462 22.426 30.699 22.524 30.874 22.699 C 31.049 22.874 31.147 23.111 31.147 23.358 C 31.147 23.605 31.049 23.842 30.874 24.016 C 30.699 24.191 30.461 24.289 30.214 24.289 C 29.966 24.289 29.729 24.191 29.554 24.016 C 29.379 23.841 29.28 23.604 29.281 23.357 C 29.281 23.11 29.379 22.874 29.554 22.699 C 29.729 22.524 29.967 22.426 30.214 22.426 Z" fill="rgb(0, 0, 0)"></path></svg>