<svg xmlns="http://www.w3.org/2000/svg" xmlns:xlink="http://www.w3.org/1999/xlink" viewBox="0 0 42 42"><path d="M 14.918 19.425 L 15.88 19.402 L 14.93 22.696 L 14.93 22.696 C 14.909 22.767 14.943 22.842 15.01 22.873 C 15.077 22.904 15.156 22.881 15.196 22.82 L 18.268 18.151 C 18.299 18.103 18.301 18.043 18.273 17.994 C 18.246 17.944 18.193 17.915 18.137 17.919 L 17.462 17.956 L 18.187 16.713 C 18.215 16.667 18.215 16.61 18.188 16.563 C 18.162 16.517 18.113 16.488 18.06 16.488 L 16.345 16.488 C 16.291 16.488 16.241 16.518 16.215 16.566 L 14.784 19.204 C 14.758 19.251 14.76 19.308 14.787 19.353 C 14.815 19.399 14.864 19.426 14.917 19.425 Z M 16.434 16.787 L 17.801 16.787 L 17.066 18.044 L 17.066 18.044 C 17.039 18.092 17.039 18.151 17.068 18.198 C 17.095 18.245 17.148 18.273 17.202 18.269 L 17.859 18.233 L 15.486 21.838 L 16.22 19.29 C 16.233 19.245 16.224 19.196 16.197 19.159 C 16.169 19.121 16.125 19.099 16.078 19.099 L 16.074 19.099 L 15.167 19.12 Z" fill="rgb(0, 0, 0)"></path><path d="M 24.232 30.981 C 24.031 30.981 23.868 30.817 23.868 30.616 L 23.868 8.052 C 23.868 7.451 23.378 6.963 22.777 6.963 L 9.817 6.963 C 9.216 6.963 8.726 7.451 8.726 8.052 L 8.726 30.616 C 8.726 30.817 8.563 30.98 8.362 30.98 C 8.161 30.98 7.997 30.817 7.997 30.616 L 7.997 8.052 C 7.997 7.05 8.814 6.234 9.817 6.234 L 22.777 6.234 C 23.78 6.234 24.597 7.05 24.597 8.052 L 24.597 30.616 C 24.597 30.817 24.434 30.981 24.232 30.981 Z" fill="rgb(0, 0, 0)"></path><path d="M 20.865 27.291 L 11.729 27.291 C 11.622 27.291 11.521 27.244 11.451 27.162 L 8.084 23.209 C 7.954 23.056 7.972 22.826 8.126 22.696 C 8.279 22.565 8.509 22.584 8.639 22.737 L 11.897 26.563 L 20.697 26.563 L 23.955 22.737 C 24.085 22.584 24.315 22.565 24.468 22.696 C 24.622 22.826 24.64 23.056 24.51 23.209 L 21.143 27.162 C 21.073 27.244 20.972 27.291 20.865 27.291 Z" fill="rgb(0, 0, 0)"></path><path d="M 25.452 33.372 C 25.25 33.372 25.087 33.209 25.087 33.007 L 25.087 30.979 L 7.504 30.979 L 7.504 33.007 C 7.504 33.209 7.341 33.372 7.14 33.372 C 6.938 33.372 6.775 33.209 6.775 33.007 L 6.775 30.615 C 6.775 30.414 6.938 30.251 7.14 30.251 L 25.452 30.251 C 25.653 30.251 25.816 30.414 25.816 30.615 L 25.816 33.007 C 25.816 33.209 25.653 33.372 25.452 33.372 Z" fill="rgb(0, 0, 0)"></path><path d="M 5.815 35.035 L 26.779 35.035 L 26.779 33.371 L 5.815 33.371 Z M 27.143 35.764 L 5.45 35.764 C 5.249 35.764 5.086 35.601 5.086 35.4 L 5.086 33.007 C 5.086 32.806 5.249 32.643 5.45 32.643 L 27.143 32.643 C 27.344 32.643 27.507 32.806 27.507 33.007 L 27.507 35.4 C 27.507 35.601 27.344 35.764 27.143 35.764 Z" fill="rgb(0, 0, 0)"></path><path d="M 11.706 9.694 C 11.557 9.694 11.435 9.816 11.435 9.965 L 11.435 12.796 C 11.435 12.945 11.557 13.067 11.706 13.067 L 20.891 13.067 C 21.04 13.067 21.162 12.945 21.162 12.796 L 21.162 9.965 C 21.162 9.816 21.04 9.694 20.891 9.694 Z M 20.891 13.795 L 11.706 13.795 C 11.155 13.795 10.706 13.346 10.706 12.796 L 10.706 9.965 C 10.706 9.414 11.155 8.966 11.706 8.966 L 20.891 8.966 C 21.442 8.966 21.891 9.414 21.891 9.965 L 21.891 12.796 C 21.891 13.346 21.442 13.795 20.891 13.795 Z" fill="rgb(0, 0, 0)"></path><path d="M 13.926 30.981 C 13.725 30.981 13.562 30.818 13.562 30.617 L 13.562 26.926 C 13.562 26.725 13.725 26.562 13.926 26.562 C 14.128 26.562 14.291 26.725 14.291 26.926 L 14.291 30.617 C 14.291 30.818 14.128 30.981 13.926 30.981 Z" fill="rgb(0, 0, 0)"></path><path d="M 16.295 30.981 C 16.094 30.981 15.931 30.818 15.931 30.617 L 15.931 26.926 C 15.931 26.725 16.094 26.562 16.295 26.562 C 16.497 26.562 16.66 26.725 16.66 26.926 L 16.66 30.617 C 16.66 30.818 16.497 30.981 16.295 30.981 Z" fill="rgb(0, 0, 0)"></path><path d="M 18.664 30.981 C 18.463 30.981 18.3 30.818 18.3 30.617 L 18.3 26.926 C 18.3 26.725 18.463 26.562 18.664 26.562 C 18.866 26.562 19.029 26.725 19.029 26.926 L 19.029 30.617 C 19.029 30.818 18.866 30.981 18.664 30.981 Z" fill="rgb(0, 0, 0)"></path><path d="M 35.463 13.603 C 35.418 13.603 35.372 13.594 35.327 13.577 C 35.141 13.502 35.05 13.29 35.125 13.103 C 35.134 13.081 35.928 11.053 35.098 9.841 L 33.901 12.549 C 33.82 12.733 33.605 12.816 33.42 12.735 C 33.236 12.654 33.153 12.439 33.234 12.255 L 34.655 9.042 C 34.701 8.937 34.793 8.861 34.903 8.834 C 35.014 8.808 35.131 8.835 35.218 8.906 C 36.991 10.353 35.851 13.252 35.802 13.374 C 35.744 13.517 35.608 13.603 35.463 13.603 Z" fill="rgb(0, 0, 0)"></path><path d="M 32.728 32.382 C 32.456 32.382 32.233 32.605 32.233 32.878 C 32.233 33.15 32.456 33.373 32.728 33.373 C 33.002 33.373 33.224 33.15 33.224 32.878 C 33.224 32.605 33.002 32.382 32.728 32.382 Z M 32.728 34.101 C 32.053 34.101 31.504 33.552 31.504 32.878 C 31.504 32.203 32.053 31.655 32.728 31.655 C 33.404 31.655 33.953 32.203 33.953 32.878 C 33.953 33.552 33.404 34.101 32.728 34.101 Z" fill="rgb(0, 0, 0)"></path><path d="M 32.731 23.674 C 32.529 23.674 32.366 23.511 32.366 23.31 L 32.366 18.406 C 32.366 18.205 32.529 18.042 32.731 18.042 C 32.933 18.042 33.095 18.206 33.095 18.406 L 33.095 23.31 C 33.095 23.511 32.933 23.674 32.731 23.674 Z" fill="rgb(0, 0, 0)"></path><path d="M 32.731 30.338 C 32.529 30.338 32.366 30.175 32.366 29.974 L 32.366 25.071 C 32.366 24.869 32.529 24.707 32.731 24.707 C 32.933 24.707 33.095 24.869 33.095 25.071 L 33.095 29.974 C 33.095 30.175 32.933 30.338 32.731 30.338 Z" fill="rgb(0, 0, 0)"></path><path d="M 32.013 13.769 C 31.987 13.769 31.965 13.775 31.951 13.78 C 31.925 13.789 31.878 13.814 31.851 13.871 L 31.55 14.518 C 31.509 14.605 31.548 14.712 31.635 14.753 L 33.193 15.478 C 33.25 15.505 33.303 15.493 33.328 15.484 C 33.354 15.475 33.401 15.45 33.428 15.393 L 33.73 14.746 C 33.757 14.689 33.745 14.637 33.736 14.611 C 33.726 14.585 33.702 14.538 33.645 14.511 L 32.086 13.786 C 32.06 13.773 32.035 13.769 32.013 13.769 Z M 33.266 16.224 C 33.136 16.224 33.007 16.195 32.886 16.138 L 31.327 15.413 C 30.875 15.202 30.678 14.662 30.888 14.21 L 31.191 13.563 C 31.293 13.344 31.474 13.179 31.702 13.096 C 31.93 13.013 32.175 13.023 32.394 13.125 L 33.953 13.851 C 34.171 13.953 34.338 14.135 34.421 14.362 C 34.504 14.59 34.493 14.835 34.391 15.054 L 34.089 15.701 C 33.987 15.92 33.805 16.085 33.578 16.168 C 33.476 16.205 33.371 16.224 33.266 16.224 Z" fill="rgb(0, 0, 0)"></path><path d="M 31.613 7.182 C 30.139 7.695 29.193 8.413 28.796 9.319 C 28.306 10.437 28.793 11.595 29.025 12.04 C 30.201 14.298 30.902 16.894 31.168 19.979 C 31.405 22.716 31.285 25.594 31.17 28.377 C 31.103 30 31.034 31.677 31.034 33.325 C 31.034 34.269 31.803 35.038 32.748 35.038 C 33.693 35.037 34.462 34.269 34.462 33.325 C 34.462 32.704 34.439 31.812 34.412 30.778 C 34.229 23.809 34.192 16.266 35.944 13.851 L 31.65 11.956 C 31.563 11.918 31.494 11.846 31.458 11.757 L 30.627 9.661 C 30.591 9.57 30.593 9.468 30.633 9.378 Z M 32.748 35.766 C 31.401 35.766 30.305 34.671 30.305 33.325 C 30.305 31.663 30.374 29.977 30.442 28.347 C 30.679 22.626 30.902 17.222 28.379 12.377 C 28.098 11.837 27.512 10.433 28.128 9.027 C 28.682 7.762 30.044 6.827 32.177 6.247 C 32.312 6.21 32.457 6.255 32.549 6.362 C 32.641 6.469 32.663 6.618 32.605 6.747 L 31.361 9.535 L 32.081 11.35 L 36.697 13.387 C 36.811 13.437 36.891 13.543 36.91 13.666 C 36.928 13.79 36.882 13.914 36.787 13.995 C 34.748 15.756 35.013 25.889 35.14 30.759 C 35.167 31.798 35.191 32.695 35.191 33.324 C 35.191 34.671 34.095 35.766 32.748 35.766 Z" fill="rgb(0, 0, 0)"></path></svg>