<svg xmlns="http://www.w3.org/2000/svg" xmlns:xlink="http://www.w3.org/1999/xlink" viewBox="0 0 12 12"><path d="M 2.178 3.671 C 2.292 3.566 2.446 3.507 2.607 3.507 C 2.768 3.507 2.922 3.566 3.036 3.671 L 6.246 6.644 L 9.457 3.671 C 9.514 3.617 9.581 3.574 9.654 3.545 C 9.804 3.486 9.972 3.485 10.123 3.542 C 10.198 3.57 10.266 3.612 10.323 3.664 C 10.38 3.717 10.425 3.779 10.455 3.849 C 10.516 3.988 10.515 4.146 10.451 4.283 C 10.418 4.353 10.372 4.415 10.315 4.465 L 6.675 7.835 C 6.562 7.94 6.407 8 6.246 8 C 6.088 8.001 5.935 7.942 5.818 7.835 L 2.178 4.465 C 2.065 4.364 2.001 4.22 2 4.068 C 2 3.919 2.064 3.777 2.178 3.671 Z" fill="rgb(165, 165, 165)"></path></svg>