<svg xmlns="http://www.w3.org/2000/svg" xmlns:xlink="http://www.w3.org/1999/xlink" viewBox="0 0 42 42"><path d="M 17.745 3.51 C 18.982 3.51 19.688 4.742 19.688 5.98 L 19.688 13.563 L 18.121 13.563 C 17.817 12.809 17.26 12.186 16.546 11.799 C 15.832 11.411 15.005 11.284 14.208 11.439 C 13.411 11.595 12.692 12.022 12.176 12.649 C 11.659 13.276 11.377 14.063 11.377 14.875 C 11.377 15.687 11.659 16.474 12.176 17.101 C 12.692 17.728 13.411 18.155 14.208 18.311 C 15.005 18.466 15.832 18.339 16.546 17.951 C 17.26 17.564 17.817 16.941 18.121 16.188 L 19.688 16.188 L 19.688 35.259 C 19.688 36.302 19.247 37.34 18.317 37.814 C 17.475 38.255 16.538 38.488 15.587 38.493 C 12.945 38.493 10.979 37.156 9.714 35.574 C 8.838 34.482 8.227 33.202 7.929 31.834 C 7.112 31.593 6.355 31.182 5.708 30.627 C 4.466 29.558 3.5 27.843 3.5 25.316 C 3.5 23.994 3.595 22.843 3.833 21.875 L 11.2 21.875 C 12.386 21.875 13.37 22.75 13.536 23.889 C 12.786 24.2 12.167 24.761 11.786 25.477 C 11.404 26.193 11.283 27.02 11.443 27.816 C 11.604 28.611 12.036 29.326 12.666 29.839 C 13.295 30.351 14.084 30.628 14.895 30.623 C 15.707 30.619 16.491 30.332 17.115 29.812 C 17.738 29.292 18.162 28.572 18.313 27.775 C 18.464 26.977 18.333 26.152 17.943 25.44 C 17.553 24.729 16.927 24.175 16.174 23.873 C 16.082 22.617 15.518 21.442 14.595 20.585 C 13.673 19.727 12.46 19.25 11.2 19.25 L 5.32 19.25 C 5.582 19.033 5.874 18.855 6.186 18.721 C 6.006 18.078 5.901 17.417 5.875 16.749 C 5.817 15.463 6.01 14.124 6.391 12.932 C 6.769 11.76 7.367 10.617 8.207 9.828 C 8.734 9.315 9.402 8.969 10.126 8.836 C 10.474 7.366 11.361 6.151 12.493 5.271 C 13.947 4.137 15.853 3.51 17.743 3.51 Z M 22.313 29.75 L 25.2 29.75 C 26.523 29.75 27.791 29.224 28.727 28.289 C 29.662 27.354 30.188 26.085 30.188 24.762 L 30.188 21.621 C 30.941 21.317 31.564 20.76 31.951 20.046 C 32.339 19.332 32.466 18.505 32.311 17.708 C 32.155 16.911 31.728 16.192 31.101 15.676 C 30.474 15.159 29.687 14.877 28.875 14.877 C 28.063 14.877 27.276 15.159 26.649 15.676 C 26.022 16.192 25.595 16.911 25.439 17.708 C 25.284 18.505 25.411 19.332 25.799 20.046 C 26.186 20.76 26.809 21.317 27.563 21.621 L 27.563 24.762 C 27.563 25.389 27.314 25.99 26.87 26.433 C 26.427 26.876 25.827 27.125 25.2 27.125 L 22.313 27.125 L 22.313 5.98 C 22.313 4.742 23.018 3.51 24.255 3.51 C 26.148 3.51 28.052 4.137 29.507 5.271 C 30.639 6.151 31.526 7.367 31.875 8.836 C 32.609 8.958 33.264 9.333 33.792 9.828 C 34.633 10.617 35.231 11.758 35.609 12.932 C 35.99 14.124 36.183 15.463 36.125 16.749 C 36.096 17.407 35.999 18.079 35.814 18.721 L 35.929 18.774 C 36.577 19.078 37.102 19.556 37.494 20.192 C 38.237 21.39 38.5 23.116 38.5 25.316 C 38.5 27.844 37.534 29.561 36.291 30.627 C 35.644 31.182 34.887 31.593 34.069 31.834 C 33.772 33.202 33.161 34.482 32.286 35.574 C 31.02 37.156 29.055 38.493 26.411 38.493 C 25.46 38.489 24.524 38.257 23.681 37.816 C 22.753 37.34 22.313 36.302 22.313 35.259 Z M 14 14.875 C 14 14.643 14.092 14.42 14.256 14.256 C 14.42 14.092 14.643 14 14.875 14 C 15.107 14 15.33 14.092 15.494 14.256 C 15.658 14.42 15.75 14.643 15.75 14.875 C 15.75 15.107 15.658 15.33 15.494 15.494 C 15.33 15.658 15.107 15.75 14.875 15.75 C 14.643 15.75 14.42 15.658 14.256 15.494 C 14.092 15.33 14 15.107 14 14.875 Z M 14.875 26.25 C 14.643 26.25 14.42 26.342 14.256 26.506 C 14.092 26.67 14 26.893 14 27.125 C 14 27.357 14.092 27.58 14.256 27.744 C 14.42 27.908 14.643 28 14.875 28 C 15.107 28 15.33 27.908 15.494 27.744 C 15.658 27.58 15.75 27.357 15.75 27.125 C 15.75 26.893 15.658 26.67 15.494 26.506 C 15.33 26.342 15.107 26.25 14.875 26.25 Z M 28 18.375 C 28 18.607 28.092 18.83 28.256 18.994 C 28.42 19.158 28.643 19.25 28.875 19.25 C 29.107 19.25 29.33 19.158 29.494 18.994 C 29.658 18.83 29.75 18.607 29.75 18.375 C 29.75 18.143 29.658 17.92 29.494 17.756 C 29.33 17.592 29.107 17.5 28.875 17.5 C 28.643 17.5 28.42 17.592 28.256 17.756 C 28.092 17.92 28 18.143 28 18.375 Z" fill="rgb(5, 17, 24)"></path></svg>