<svg xmlns="http://www.w3.org/2000/svg" xmlns:xlink="http://www.w3.org/1999/xlink" style="width: 100%; height: 100%" viewBox="0 0 64 64" preserveAspectRatio="none" width="42" height="42"><defs><svg width="64" height="64" fill="none" xmlns="http://www.w3.org/2000/svg" id="svg1406607825_1534"><path d="M23 15a3 3 0 1 0 5.999 0A3 3 0 0 0 23 15Zm3-1a1 1 0 1 1 0 2 1 1 0 0 1 0-2Zm-5 1a3 3 0 1 0-5.999 0A3 3 0 0 0 21 15Zm-3 1a1 1 0 1 1 0-2 1 1 0 0 1 0 2Zm13-1a3 3 0 1 0 5.999 0A3 3 0 0 0 31 15Zm3-1a1 1 0 1 1 0 2 1 1 0 0 1 0-2Zm-12-3a2.5 2.5 0 1 0 0-5 2.5 2.5 0 0 0 0 5Zm0-3a.5.5 0 1 1 0 1 .5.5 0 0 1 0-1Zm8 3a2.5 2.5 0 1 0 0-5 2.5 2.5 0 0 0 0 5Zm0-3a.5.5 0 1 1 0 1 .5.5 0 0 1 0-1Zm0 10a3 3 0 1 0 0 5.999A3 3 0 0 0 30 18Zm0 4a1 1 0 1 1 0-2 1 1 0 0 1 0 2Zm-8-4a3 3 0 1 0 0 5.999A3 3 0 0 0 22 18Zm0 4a1 1 0 1 1 0-2 1 1 0 0 1 0 2Z" fill="#000"></path><path d="M40 34a14 14 0 0 0-12.63 8H24a3 3 0 0 1-3-3V27.188a15.455 15.455 0 0 0 5.027.812c1.69 0 3.368-.27 4.973-.8V33a1 1 0 1 0 2 0v-6.6a16.016 16.016 0 0 0 7.222-21.735A4.95 4.95 0 0 0 35.794 2H16.207a4.959 4.959 0 0 0-4.436 2.676A15.986 15.986 0 0 0 19 26.38V39a5.009 5.009 0 0 0 4 4.9V61a1 1 0 0 0 1 1h4a1 1 0 0 0 1-1v-2a1 1 0 0 0-2 0v1h-2V44h1.59A14 14 0 1 0 40 34ZM12.118 13.844a14.04 14.04 0 0 1 1.43-8.25A2.966 2.966 0 0 1 16.208 4h19.587a2.96 2.96 0 0 1 2.652 1.583 14.006 14.006 0 0 1-3.111 16.848 13.885 13.885 0 0 1-10.928 3.481 14.058 14.058 0 0 1-12.29-12.068ZM40 60a12 12 0 1 1 12-12 12.013 12.013 0 0 1-12 12Z" fill="#000"></path><path d="M44 46.001h-1.867l.859-6.876a1 1 0 0 0-1.85-.639l-6 10A1 1 0 0 0 36 50.001h1.867l-.86 6.876a1 1 0 0 0 1.85.639l6-10A1 1 0 0 0 44 46.001Zm-4.42 6.423.412-3.3A1 1 0 0 0 39 48.001h-1.234l2.654-4.423-.412 3.3A1 1 0 0 0 41 48.001h1.234l-2.654 4.423Z" fill="#000"></path></svg></defs><use href="#svg1406607825_1534"></use></svg>