<svg xmlns="http://www.w3.org/2000/svg" xmlns:xlink="http://www.w3.org/1999/xlink" viewBox="0 0 67 36"><g><defs><linearGradient id="idss12212243182_1g-1057268834" x1="0" x2="1" y1="0.2758757393822943" y2="0.7241242606177056"><stop offset="0" stop-color="rgb(12, 255, 210)" stop-opacity="1"></stop><stop offset="0.5139006193693694" stop-color="rgb(23, 250, 255)" stop-opacity="1"></stop><stop offset="1" stop-color="rgb(0, 191, 255)" stop-opacity="1"></stop></linearGradient></defs><path d="M 14.74 9.684 C 14.74 9.556 14.844 9.45 14.975 9.45 L 16.338 9.45 C 16.469 9.45 16.573 9.556 16.573 9.684 L 16.573 26.246 C 16.573 26.374 16.469 26.48 16.338 26.48 L 14.975 26.48 C 14.913 26.48 14.853 26.456 14.809 26.412 C 14.765 26.368 14.74 26.308 14.74 26.246 Z M 36.552 9.684 C 36.552 9.621 36.576 9.562 36.621 9.518 C 36.665 9.474 36.725 9.449 36.787 9.45 L 38.15 9.45 C 38.281 9.45 38.385 9.556 38.385 9.684 L 38.385 26.246 C 38.385 26.374 38.281 26.48 38.15 26.48 L 36.787 26.48 C 36.725 26.48 36.665 26.456 36.621 26.412 C 36.577 26.368 36.552 26.308 36.552 26.246 Z M 20.422 9.45 L 21.785 9.45 C 21.916 9.45 22.02 9.556 22.02 9.684 C 22.02 10.442 22.858 10.82 23.437 10.458 C 24.385 9.865 25.45 9.45 26.562 9.45 C 29.867 9.45 32.582 11.974 32.901 15.201 C 32.905 15.247 32.889 15.292 32.856 15.324 C 32.814 15.367 32.756 15.39 32.697 15.389 L 31.334 15.389 C 31.218 15.389 31.069 15.284 31.036 15.083 C 30.664 12.887 28.774 11.282 26.562 11.285 C 24.058 11.285 22.026 13.323 22.026 15.839 L 22.026 26.246 C 22.026 26.374 21.922 26.48 21.791 26.48 L 20.422 26.48 C 20.36 26.48 20.3 26.456 20.256 26.412 C 20.212 26.368 20.187 26.308 20.187 26.246 L 20.187 9.684 C 20.187 9.556 20.29 9.45 20.422 9.45 Z M 47.767 10.543 C 45.596 10.543 43.674 12 43.674 13.981 C 43.674 15.038 44.429 15.831 45.218 16.361 C 45.968 16.851 46.798 17.205 47.669 17.408 C 47.998 17.482 48.33 17.542 48.652 17.599 L 48.696 17.608 C 49.005 17.662 49.302 17.716 49.592 17.779 C 50.201 17.911 50.735 18.076 51.179 18.349 C 52.552 19.194 53.395 20.509 53.395 21.949 C 53.395 24.369 50.965 26.48 47.767 26.48 C 46.184 26.48 44.767 25.954 43.752 25.122 C 42.989 24.497 42.46 23.705 42.245 22.836 C 42.222 22.743 42.203 22.65 42.187 22.556 C 42.18 22.521 42.192 22.485 42.218 22.46 C 42.259 22.42 42.314 22.398 42.372 22.399 L 43.439 22.399 C 43.55 22.399 43.716 22.505 43.784 22.747 C 43.82 22.876 43.865 23.002 43.918 23.125 C 44.132 23.622 44.476 24.059 44.906 24.412 C 45.65 25.022 46.663 25.388 47.766 25.388 C 49.936 25.388 51.858 23.93 51.858 21.95 C 51.858 20.946 51.327 20.148 50.575 19.583 C 49.83 19.021 48.842 18.665 47.831 18.516 L 47.666 18.491 C 45.856 18.223 45.25 18.133 44.352 17.581 C 42.98 16.735 42.137 15.421 42.137 13.981 C 42.137 11.56 44.567 9.45 47.766 9.45 C 49.347 9.45 50.765 9.976 51.78 10.808 C 52.543 11.433 53.071 12.225 53.286 13.094 C 53.31 13.186 53.329 13.279 53.345 13.374 C 53.351 13.409 53.34 13.445 53.314 13.469 C 53.273 13.51 53.218 13.532 53.16 13.531 L 52.093 13.531 C 51.981 13.531 51.816 13.424 51.747 13.182 C 51.711 13.053 51.666 12.927 51.613 12.804 C 51.391 12.302 51.052 11.861 50.625 11.518 C 49.881 10.908 48.869 10.543 47.767 10.543 Z" fill="url(#idss12212243182_1g-1057268834)" stroke-width="0.89" stroke="rgb(NaN,NaN,NaN)" stroke-miterlimit="10"></path></g></svg>