<svg xmlns="http://www.w3.org/2000/svg" xmlns:xlink="http://www.w3.org/1999/xlink" style="width: 100%; height: 100%" viewBox="0 0 100 100" preserveAspectRatio="none" width="42" height="42"><defs><svg width="100" height="100" fill="none" xmlns="http://www.w3.org/2000/svg" id="svg1091399767_1397"><path d="M43.2 90.197c-1.1-.198-2.1-.397-3.1-.595-10.3-2.376-19.1-8.415-25-16.93l7.4-8.317 2.1 1.683c.7.594 1.8.594 2.5-.099 1-.891 2.6-2.376 5.3-4.752.8-.792 1.4-1.783 1.6-2.872 1.2-8.416 13.3-9.505 16.2-9.604.8 1.584 2.5 2.674 4.4 2.674h10.2c1.4 0 2.5-1.09 2.5-2.476V35.444c0-1.386-1.1-2.475-2.5-2.475H54.7c-1.9 0-3.5.99-4.3 2.574-16.9.594-30.8 15.842-34.9 20.693-.7.792-.6 2.08.3 2.772l2.6 2.08-8.6 9.604c-.8.89-.9 2.079-.3 3.069 6.6 10.594 17 18.02 29.3 20.89 1.8.397 3.6.694 5.3.892-.7-1.485-1-3.07-1-4.654v-.692h.1Z" fill="#000"></path><path d="M31.4 11.88C49 3.365 70.5 8.216 82.6 23.464c7.5 9.505 10.5 21.188 8.4 32.97-.1.495-.2.99-.3 1.386h.3c1.7 0 3.3.397 4.8 1.09.1-.495.2-1.09.3-1.585 2.4-13.267-1-26.435-9.4-37.128C73.2 3.068 48.9-2.378 29.1 7.127c-14 6.733-23.5 19.307-26 34.456-.2 1.386.7 2.772 2.2 2.97 1.4.198 2.8-.792 3-2.178C10.6 29.009 19 17.82 31.4 11.88Z" fill="#000"></path><path d="M75.8 36.037H70v12.376h7.1c.7 0 1.2-.594 1.1-1.188l-1.3-10.198c-.1-.594-.6-.99-1.1-.99ZM91 63.76H54.8c-3.1 0-5.7 2.475-5.7 5.643v21.485c0 3.07 2.5 5.644 5.7 5.644H91c3.1 0 5.7-2.475 5.7-5.644V69.403c0-3.168-2.5-5.643-5.7-5.643Zm-2.3 14.752L71.3 89.997c-1 .694-2.4 0-2.4-1.287v-5.544l-10.6 1.386c-1.6.198-2.4-1.881-1.1-2.772l17.4-11.486c1-.693 2.4 0 2.4 1.288v5.544l10.6-1.386c1.6-.297 2.4 1.782 1.1 2.772Z" fill="#000"></path></svg></defs><use href="#svg1091399767_1397"></use></svg>