<svg xmlns="http://www.w3.org/2000/svg" xmlns:xlink="http://www.w3.org/1999/xlink" style="width: 100%; height: 100%" viewBox="0 0 110 110" preserveAspectRatio="none" width="42" height="42"><defs><svg width="110" height="110" fill="none" xmlns="http://www.w3.org/2000/svg" id="svg2113650830_1277"><path d="M82.332 18.332H66.793c-5.875.024-10.625 4.793-10.625 10.668v20.332h-5.086c-5.75 0-10.414 4.664-10.414 10.418v31.5a4.628 4.628 0 0 1-9.21 0V44.125A11.545 11.545 0 0 0 40.042 33v-4.168a3.805 3.805 0 0 0-.96-2.164V21.25a2.917 2.917 0 0 0-2.915-2.918 2.918 2.918 0 0 0-2.918 2.918v3.875h-9.457V21.25a2.925 2.925 0 0 0-.715-2.285 2.93 2.93 0 0 0-2.183-.98 2.92 2.92 0 0 0-2.18.98A2.925 2.925 0 0 0 18 21.25v5.418a3.78 3.78 0 0 0-.957 2.5v4.168-.004a11.5 11.5 0 0 0 8.79 10.793V91.25c0 5.754 4.663 10.418 10.417 10.418s10.418-4.664 10.418-10.418v-31.5a4.623 4.623 0 0 1 4.625-4.582h5.082V98.75a2.878 2.878 0 0 0 2.793 2.918h31.043-.004a2.878 2.878 0 0 0 2.875-2.918V29c0-2.844-1.133-5.57-3.152-7.57a10.681 10.681 0 0 0-7.598-3.098ZM61.957 29a4.834 4.834 0 0 1 4.836-4.832h15.543-.004A4.834 4.834 0 0 1 87.168 29v12.5h-25L61.957 29Zm25 66.668h-25V47.5h25v48.168ZM68.414 79l4.918-4.875-4.168-2.082h.004a2.838 2.838 0 0 1-1.543-2.125 2.879 2.879 0 0 1 .793-2.543L76.375 60a2.945 2.945 0 0 1 4.168 0 2.952 2.952 0 0 1 0 4.168l-4.918 4.875 4.168 2.082a2.834 2.834 0 0 1 1.539 2.125 2.84 2.84 0 0 1-.79 2.543l-7.75 7.75a2.959 2.959 0 0 1-4.167 0 2.957 2.957 0 0 1 0-4.293l-.211-.25Z" fill="#000"></path></svg></defs><use href="#svg2113650830_1277"></use></svg>