<svg xmlns="http://www.w3.org/2000/svg" xmlns:xlink="http://www.w3.org/1999/xlink" viewBox="0 0 695 686"><g><defs><linearGradient id="idss9767850608_1g-655872362" x1="0.85" x2="0.16999999999999993" y1="0.15719335595670658" y2="0.8232176929551054"><stop offset="0" stop-color="rgba(240, 147, 67, 0)" stop-opacity="0"></stop><stop offset="0.4749602543720191" stop-color="rgb(240, 147, 67)" stop-opacity="1"></stop><stop offset="1" stop-color="rgba(240, 147, 67, 0.01)" stop-opacity="0.01"></stop></linearGradient></defs><path d="M 663.852 85.827 L 668.056 102.693 L 579.315 188.744 L 565.203 202.324 L 551.421 215.542 C 543.562 223.048 535.143 230.961 526.361 238.52 C 525.128 239.583 523.884 240.639 522.633 241.689 C 517.48 245.973 512.168 249.994 506.734 253.723 C 501.306 257.448 495.752 260.887 490.109 264.011 C 478.883 270.203 466.478 275.766 452.184 281.019 C 443.42 284.241 434.362 287.345 425.438 290.361 L 418.777 292.607 C 416.242 293.461 413.706 294.315 411.172 295.172 L 408.744 296.001 C 394.303 300.975 382.15 305.964 371.656 311.226 C 359.28 317.431 348.467 324.883 339.493 333.387 L 338.557 334.284 C 329.401 343.163 321.296 354.081 314.467 366.734 C 308.48 377.822 302.968 390.283 297.12 405.948 L 292.023 419.632 C 288.64 428.697 285.158 437.895 281.553 446.787 C 275.792 461.001 269.752 473.311 263.093 484.421 C 256.398 495.561 248.41 506.342 239.358 516.463 C 231.384 525.324 222.979 533.829 214.925 541.791 L 211.872 544.8 C 203.396 553.123 194.909 561.417 186.432 569.697 L 97.307 656.137 L 80.637 651.356 L 173.396 561.411 C 177.441 557.463 181.487 553.51 185.533 549.552 L 201.459 533.952 L 203.592 531.848 C 213.083 522.467 221.104 514.231 228.791 505.345 C 237.692 495.003 245.42 483.761 251.761 471.931 C 257.887 460.499 263.496 447.612 268.91 432.532 C 271.364 425.699 273.77 418.703 276.12 411.796 L 280.567 398.703 L 283.373 390.487 C 284.04 388.55 284.709 386.654 285.378 384.795 C 290.075 371.77 294.863 360.624 299.947 350.862 C 306.35 338.569 314.007 327.976 322.717 319.363 L 323.581 318.519 C 332.551 309.856 343.54 302.353 356.244 296.215 C 367.533 290.761 380.585 285.765 396.147 280.94 C 399.572 279.877 403.006 278.825 406.442 277.778 L 418.24 274.184 C 424.922 272.144 431.689 270.054 438.3 267.921 C 453.423 263.041 466.383 257.921 477.918 252.269 C 489.883 246.406 501.288 239.174 511.815 230.775 C 522.175 222.45 531.932 213.353 540.934 204.762 C 547.796 198.201 554.628 191.635 561.443 185.078 L 568.882 177.918 Z M 672.827 121.798 L 591.185 200.965 C 584.236 207.659 577.272 214.367 570.283 221.076 L 563.286 227.784 C 554.889 235.818 544.925 245.234 534.692 254.148 C 524.507 262.976 513.895 270.846 503.148 277.538 C 492.197 284.332 480.016 290.655 466.941 296.334 C 456.025 301.074 444.606 305.566 433.394 309.915 L 427.574 312.167 C 412.199 318.115 400.001 323.583 389.186 329.375 C 377.122 335.836 366.488 343.4 357.552 351.875 L 356.535 352.85 C 347.389 361.726 339.146 372.489 332.038 384.84 C 325.916 395.481 320.048 407.566 313.569 422.874 L 311.214 428.434 C 306.478 439.598 301.579 450.985 296.36 461.992 C 290.203 474.973 283.41 487.036 276.171 497.84 C 268.943 508.59 260.849 518.745 251.426 528.883 C 242.133 538.854 232.651 548.284 223.788 556.991 L 216.298 564.327 C 212.306 568.237 208.313 572.143 204.321 576.042 L 196.662 583.52 L 116.208 661.539 L 99.539 656.758 L 175.761 582.85 L 176.6 582.034 C 179.471 579.25 182.336 576.473 185.211 573.687 C 191.449 567.595 197.689 561.503 203.925 555.397 L 213.33 546.172 L 216.339 543.205 C 224.414 535.223 232.842 526.693 240.853 517.792 C 249.988 507.579 258.048 496.697 264.814 485.445 C 271.526 474.246 277.611 461.845 283.412 447.533 C 287.477 437.509 291.379 427.109 295.161 416.949 L 298.998 406.642 C 304.814 391.067 310.289 378.686 316.232 367.678 C 322.781 355.555 330.506 345.052 339.206 336.448 L 340.112 335.563 C 349.092 326.89 360.005 319.305 372.547 313.02 C 383.568 307.495 396.41 302.279 411.807 297.072 L 419.41 294.508 C 430.461 290.786 441.888 286.938 452.869 282.903 C 467.255 277.613 479.75 272.008 491.071 265.767 C 496.456 262.785 501.759 259.509 506.958 255.98 C 512.767 252.039 518.438 247.781 523.921 243.22 C 525.193 242.153 526.459 241.078 527.715 239.995 C 536.565 232.377 544.966 224.476 552.797 216.994 L 553.923 215.913 C 558.157 211.862 562.383 207.808 566.598 203.756 L 580.748 190.142 L 668.622 104.932 Z M 677.594 140.916 L 603.053 213.197 C 596.103 219.896 589.141 226.608 582.155 233.321 L 572.576 242.508 C 565.244 249.516 556.119 258.143 546.739 266.602 C 541.03 271.719 535.419 276.431 529.812 280.826 L 527.569 282.576 L 527.012 282.997 C 523.384 285.772 519.751 288.424 516.086 290.961 C 505.541 298.25 493.954 305.199 481.647 311.611 C 478.771 313.107 475.88 314.574 472.942 316.033 L 470.729 317.126 C 464.059 320.404 457.108 323.669 449.498 327.171 L 443.242 330.039 L 442.173 330.531 C 428.288 336.927 417.213 342.606 407.476 348.316 C 405.58 349.427 403.728 350.568 401.905 351.729 L 400.543 352.602 C 399.919 353.005 399.284 353.401 398.668 353.81 L 397.676 354.487 C 389.937 359.695 382.858 365.319 376.553 371.302 L 375.437 372.372 C 366.306 381.231 357.875 391.78 350.378 403.727 C 349.198 405.607 348.016 407.543 346.825 409.544 L 345.883 411.137 C 341.162 419.171 336.303 428.253 330.926 439.07 L 330.386 440.157 C 324.453 452.141 318.015 464.917 311.14 477.149 C 310.282 478.67 309.415 480.18 308.542 481.678 C 302.422 492.162 295.915 502.064 289.158 511.169 C 281.62 521.286 273.223 531.141 263.488 541.298 C 258.38 546.598 253.157 551.889 247.981 557.095 L 235.772 569.34 L 135.087 666.97 L 118.419 662.191 L 197.052 585.946 L 205.716 577.475 C 209.711 573.574 213.706 569.665 217.702 565.752 C 220.199 563.307 222.696 560.876 225.192 558.425 L 228.174 555.492 C 236.18 547.598 244.607 539.144 252.894 530.255 C 262.388 520.039 270.547 509.803 277.833 498.962 C 285.129 488.075 291.97 475.928 298.169 462.857 C 303.841 450.897 309.127 438.508 314.237 426.441 L 315.413 423.662 C 321.859 408.429 327.695 396.414 333.776 385.847 C 340.789 373.656 348.917 363.041 357.931 354.295 L 358.144 354.09 C 367.109 345.432 377.869 337.714 390.133 331.146 C 400.35 325.675 411.821 320.489 426.082 314.904 L 428.407 313.998 L 434.019 311.826 C 445.284 307.459 456.758 302.946 467.741 298.176 C 480.914 292.453 493.182 286.084 504.206 279.245 C 515.044 272.495 525.743 264.563 536.006 255.668 C 546.18 246.809 555.795 237.73 564.672 229.237 C 571.517 222.685 578.333 216.129 585.133 209.582 L 592.608 202.383 L 673.389 124.05 Z M 678.153 143.16 L 682.357 160.027 L 587.129 252.364 L 573.967 264.769 C 568.947 269.499 563.837 274.296 558.751 279.006 C 548.278 288.64 538.504 296.886 528.874 304.215 C 518.789 311.886 507.744 319.405 496.047 326.565 L 494.06 327.773 C 483.128 334.387 472.128 340.537 463.234 345.421 L 457.653 348.484 C 448.295 353.647 436.813 360.18 425.821 367.332 C 423.68 368.723 421.595 370.148 419.536 371.589 C 410.847 377.655 402.874 384.109 395.778 390.858 L 394.507 392.074 C 385.426 400.88 376.772 411.175 368.784 422.674 C 361.255 433.509 354.342 444.829 348.872 454.056 L 345.348 460.029 C 337.729 472.917 331.578 482.862 325.596 491.979 C 318.043 503.473 310.099 514.363 301.986 524.342 C 294.266 533.794 285.605 543.391 275.505 553.681 C 270.722 558.526 265.851 563.4 261.048 568.19 L 250.504 578.7 C 249.544 579.658 248.585 580.616 247.628 581.572 L 153.977 672.381 L 137.312 667.603 L 237.176 570.77 L 247.379 560.538 C 253.223 554.672 259.149 548.686 264.93 542.683 C 274.741 532.448 283.191 522.53 290.764 512.362 C 291.735 511.053 292.702 509.727 293.662 508.386 C 300.388 498.998 306.841 488.842 312.882 478.13 C 317.481 469.948 321.877 461.534 326.061 453.273 C 327.456 450.519 328.829 447.78 330.177 445.075 L 332.741 439.913 L 333.84 437.715 C 339.115 427.207 343.892 418.381 348.536 410.579 C 349.721 408.588 350.898 406.663 352.074 404.791 C 359.495 392.969 367.824 382.544 376.829 373.807 L 377.047 373.597 C 386.004 364.947 396.581 357.022 408.487 350.041 L 409.915 349.21 C 419.503 343.67 430.445 338.113 444.123 331.835 L 447.856 330.126 C 460.78 324.2 471.772 319.003 482.571 313.384 C 494.948 306.936 506.607 299.945 517.224 292.605 C 519.034 291.352 520.837 290.069 522.635 288.759 L 524.943 287.067 C 526.646 285.801 528.349 284.496 530.05 283.174 C 536.024 278.532 541.994 273.54 548.076 268.089 L 549.744 266.581 C 559.728 257.529 569.256 248.465 576.544 241.479 C 585.883 232.527 595.174 223.57 604.468 214.612 Z M 687.119 179.138 L 598.987 264.595 L 593.08 270.189 L 587.173 275.795 C 581.704 280.989 576.228 286.187 570.723 291.366 L 568.808 293.156 C 558.682 302.592 549.955 310.295 541.485 317.277 C 531.654 325.375 521.073 333.384 510.034 341.083 L 508.151 342.392 C 497.473 349.786 486.759 356.77 478.23 362.263 L 473.821 365.102 C 465.036 370.775 454.182 377.938 443.51 385.664 C 432.726 393.473 423.194 401.355 414.429 409.718 L 413.15 410.947 L 412.963 411.129 C 403.799 420.015 395.156 429.765 386.54 440.931 L 385.137 442.757 C 377.451 452.813 370.241 463.07 364.503 471.385 L 360.389 477.353 C 354.481 485.897 347.198 496.271 339.649 506.389 C 331.526 517.273 323.106 527.68 314.623 537.316 L 313.241 538.878 C 305.82 547.225 297.587 555.899 287.485 566.015 C 283.893 569.6 280.294 573.173 276.693 576.741 L 271.29 582.091 C 267.347 585.994 263.407 589.894 259.486 593.793 L 172.852 677.798 L 156.191 673.021 L 249.029 583.001 L 264.719 567.357 C 268.789 563.293 272.89 559.182 276.932 555.088 C 287.075 544.754 295.777 535.112 303.537 525.611 C 311.692 515.579 319.676 504.635 327.268 493.083 L 328.519 491.167 C 335.58 480.307 342.159 469.364 347.379 460.529 L 350.65 454.989 C 356.11 445.783 362.99 434.526 370.426 423.82 C 378.065 412.824 386.318 402.94 394.971 394.423 L 396.205 393.219 C 405.112 384.617 415.441 376.475 426.91 369.014 C 437.908 361.865 449.332 355.364 458.634 350.233 L 465.731 346.336 C 474.898 341.288 486.075 335.004 497.089 328.277 C 508.85 321.079 519.951 313.519 530.085 305.813 C 539.737 298.47 549.558 290.186 560.108 280.482 C 566.045 274.984 572.009 269.372 577.825 263.887 L 580.308 261.544 C 583.038 258.969 585.767 256.395 588.51 253.816 L 682.917 162.277 Z M 691.886 198.246 L 582.914 303.914 C 580.534 306.058 578.161 308.212 575.79 310.37 L 572.235 313.61 C 566.261 319.058 560.083 324.692 553.899 330.132 C 544.992 337.965 535.473 345.851 525.572 353.597 L 523.587 355.144 C 514.106 362.506 504.432 369.678 496.347 375.598 L 488.216 381.536 C 479.947 387.588 469.902 395.058 460.079 402.838 C 449.125 411.507 439.317 420.057 430.189 428.921 C 421.026 437.805 412.185 447.331 403.162 458.04 L 401.694 459.788 C 394.369 468.54 387.339 477.4 381.498 484.874 L 374.861 493.395 C 366.537 504.059 359.77 512.51 353.267 520.371 C 344.591 530.826 335.778 540.834 327.07 550.116 C 322.839 554.624 318.499 559.128 314.213 563.548 L 304.791 573.251 C 303.075 575.022 301.366 576.793 299.667 578.562 L 191.748 683.205 L 175.087 678.427 L 260.887 595.232 L 266.679 589.483 L 272.478 583.74 C 276.13 580.124 279.784 576.507 283.432 572.882 L 288.901 567.436 L 290.78 565.548 C 300.688 555.571 308.781 546.977 316.123 538.645 C 324.612 529.005 333.066 518.557 341.252 507.591 L 342.602 505.775 C 349.779 496.088 356.573 486.4 362.118 478.376 L 367.741 470.225 C 373.539 461.863 380.633 451.861 388.122 442.158 C 396.208 431.68 404.666 422.085 413.278 413.622 L 414.725 412.211 C 423.362 403.871 432.743 396.021 443.351 388.259 L 444.684 387.29 C 453.115 381.184 462.351 374.91 474.264 367.202 L 482.579 361.84 C 491.104 356.323 501.283 349.63 511.177 342.729 C 522.294 334.972 532.919 326.932 542.757 318.826 L 544.353 317.505 C 552.881 310.412 561.746 302.525 572.093 292.83 C 575.765 289.374 579.424 285.91 583.076 282.446 L 588.55 277.251 C 592.488 273.513 596.421 269.778 600.37 266.046 L 687.682 181.385 Z M 61.78 645.927 L 161.469 549.264 L 168.14 542.74 C 172.911 538.076 177.684 533.41 182.454 528.737 L 189.606 521.719 L 191.441 519.911 C 199.469 511.982 208.494 502.835 216.769 492.913 C 225.353 482.536 232.777 470.971 238.835 458.538 C 244.507 446.898 249.779 433.67 254.954 418.096 C 256.577 413.214 258.19 408.245 259.775 403.337 L 263.676 391.231 C 265.369 385.987 267.094 380.682 268.833 375.474 C 273.996 360.001 279.356 346.975 285.217 335.653 C 291.772 322.992 299.659 312.149 308.656 303.421 L 308.837 303.246 C 317.798 294.592 328.791 287.11 341.512 281.009 C 353.004 275.495 366.114 270.564 381.591 265.931 C 388.126 263.972 394.805 262.041 401.343 260.161 L 411.131 257.347 C 415.517 256.083 419.944 254.798 424.3 253.506 C 439.914 248.877 453.199 244.102 464.916 238.907 C 477.509 233.325 489.223 226.411 499.74 218.354 C 510.332 210.193 520.103 201.126 529.085 192.544 C 535.393 186.508 541.676 180.469 547.945 174.437 L 557.026 165.694 L 659.094 66.722 L 663.295 83.575 L 567.495 176.471 L 566.868 177.076 C 557.797 185.806 548.702 194.563 539.555 203.307 L 536.702 206.023 C 528.55 213.756 519.805 221.787 510.567 229.205 C 500.172 237.501 488.892 244.652 477.041 250.464 C 465.611 256.07 452.739 261.155 437.69 266.01 C 431.042 268.154 424.233 270.257 417.51 272.31 L 410.825 274.346 C 405.731 275.897 400.634 277.448 395.557 279.023 L 393.04 279.811 C 378.484 284.422 366.142 289.206 355.376 294.406 C 342.828 300.464 331.925 307.843 322.945 316.353 L 322.036 317.224 C 312.879 326.111 304.851 337.115 298.176 349.93 C 293.05 359.772 288.228 370.999 283.501 384.109 C 282.825 385.982 282.152 387.893 281.48 389.845 L 278.665 398.083 L 274.215 411.184 C 271.872 418.069 269.474 425.043 267.031 431.849 C 261.651 446.834 256.08 459.634 250.001 470.978 C 243.717 482.694 236.072 493.815 227.28 504.028 C 219.384 513.163 211.077 521.654 201.131 531.462 L 197.082 535.442 L 190.227 542.16 L 182.8 549.424 C 179.112 553.027 175.474 556.576 171.935 560.028 L 78.424 650.7 Z M 53.153 643.487 L 50.558 633.08 L 149.611 537.033 L 153.529 533.208 C 158.911 527.954 164.298 522.697 169.682 517.428 L 177.754 509.517 C 186.26 501.161 196.063 491.34 204.766 480.523 C 212.992 470.246 220.179 458.434 226.131 445.415 C 231.476 433.725 236.563 420.311 241.686 404.408 C 242.645 401.429 243.597 398.444 244.547 395.457 L 248.289 383.69 C 250.625 376.363 253.019 368.943 255.465 361.7 C 260.62 346.436 266.048 333.482 272.055 322.098 C 278.506 309.884 286.19 299.329 294.904 290.71 L 295.819 289.816 C 304.786 281.157 315.733 273.63 328.358 267.441 C 339.862 261.8 352.903 256.797 368.224 252.144 C 378.195 249.116 388.478 246.204 398.425 243.389 C 402.625 242.2 406.823 241.01 411.008 239.811 C 426.94 235.243 440.399 230.655 452.155 225.783 C 465.286 220.337 477.243 213.671 487.699 205.968 C 498.367 198.049 508.197 188.963 517.231 180.324 C 523.791 174.043 530.326 167.758 536.845 161.48 L 545.164 153.467 L 645.201 56.463 L 657.407 59.961 L 658.531 64.466 L 555.635 164.242 L 554.879 164.97 C 545.851 173.659 536.798 182.374 527.701 191.083 C 518.732 199.649 508.99 208.688 498.52 216.753 C 488.131 224.712 476.55 231.547 464.102 237.063 C 452.471 242.22 439.266 246.967 423.729 251.575 C 419.383 252.863 414.964 254.146 410.586 255.408 L 397.519 259.166 C 392.03 260.749 386.473 262.364 381.014 264.001 C 365.404 268.676 352.2 273.645 340.644 279.191 C 328.063 285.23 317.139 292.603 308.149 301.121 L 307.262 301.971 C 298.103 310.858 290.089 321.875 283.44 334.72 C 277.533 346.127 272.133 359.247 266.932 374.827 C 264.848 381.073 262.783 387.454 260.77 393.701 L 257.88 402.674 C 256.294 407.59 254.677 412.565 253.054 417.453 C 247.904 432.946 242.664 446.094 237.034 457.648 C 231.035 469.957 223.697 481.389 215.227 491.62 C 207.22 501.223 198.632 510.022 188.202 520.28 C 178.858 529.457 169.498 538.597 160.153 547.721 L 59.509 645.312 Z M 45.804 613.945 L 137.759 524.778 C 147.142 515.634 156.535 506.474 165.916 497.276 L 167.997 495.231 C 176.349 487.001 185.024 478.138 192.828 468.165 C 200.799 457.92 207.845 445.961 213.768 432.62 C 218.983 420.872 223.881 407.803 229.186 391.49 L 233.72 377.52 C 236.801 368.047 239.973 358.428 243.265 349.106 C 248.551 334.138 254.139 321.353 260.351 310.021 C 267.12 297.668 275.141 286.953 284.19 278.169 L 284.389 277.977 C 293.393 269.282 304.253 261.666 316.671 255.339 C 328.132 249.5 341.008 244.33 356.036 239.533 C 366.904 236.066 378.148 232.781 389.129 229.601 L 398.496 226.891 L 400.877 226.196 C 415.421 221.923 427.374 217.891 438.181 213.612 L 439.755 212.986 C 453.203 207.582 465.301 201.062 475.712 193.607 C 485.824 186.345 494.889 178.153 505.389 168.088 C 514.734 159.125 524.034 150.162 533.307 141.217 L 626.315 51.03 L 642.985 55.81 L 543.774 152.013 L 529.454 165.8 C 524.928 170.153 520.395 174.508 515.85 178.863 L 513.489 181.113 C 505.163 189.017 496.178 197.171 486.509 204.343 C 476.188 211.953 464.371 218.539 451.389 223.918 L 449.425 224.723 C 438.205 229.272 425.431 233.582 410.458 237.872 C 407.69 238.666 404.917 239.454 402.141 240.24 L 397.976 241.42 C 387.989 244.247 377.662 247.17 367.644 250.213 C 352.214 254.904 339.076 259.945 327.479 265.627 C 315.019 271.73 304.159 279.136 295.175 287.649 L 294.24 288.545 C 285.076 297.436 277.017 308.405 270.288 321.146 C 264.236 332.606 258.767 345.656 253.57 361.043 C 251.124 368.287 248.731 375.704 246.396 383.026 L 244.08 390.306 C 242.651 394.802 241.224 399.297 239.781 403.777 L 238.933 406.391 C 234.129 421.072 229.337 433.584 224.313 444.566 C 218.429 457.438 211.327 469.11 203.206 479.254 C 195.165 489.25 186.156 498.406 178.121 506.332 L 176.352 508.072 C 171.145 513.184 165.931 518.284 160.719 523.375 L 148.225 535.574 L 50.008 630.81 Z M 41.021 594.846 L 154.154 485.146 L 156.956 482.348 C 164.835 474.464 173.416 465.662 180.927 455.897 C 188.754 445.721 195.764 433.728 201.763 420.253 L 202.481 418.628 C 207.257 407.733 211.91 395.54 217.028 380.512 L 220.11 371.435 C 223.95 360.148 227.915 348.667 232.08 337.616 C 237.586 323.016 243.396 310.461 249.844 299.232 C 256.792 287.133 264.927 276.525 274.02 267.701 L 274.236 267.492 C 283.276 258.763 294.026 251.037 306.193 244.524 C 317.564 238.439 330.221 233.038 344.886 228.015 C 356.44 224.059 368.251 220.397 379.834 216.866 L 386.753 214.762 C 403.109 209.792 416.138 205.298 427.753 200.614 C 441.294 195.155 453.425 188.673 463.806 181.347 C 474.989 173.458 485.019 164.064 493.543 155.878 C 502.879 146.913 512.171 137.945 521.447 128.993 L 607.427 45.619 L 624.089 50.397 L 531.909 139.783 C 522.639 148.724 513.339 157.686 503.996 166.647 L 501.993 168.56 C 492.393 177.697 483.91 185.254 474.539 191.984 C 464.24 199.352 452.284 205.795 439 211.133 L 438.162 211.467 L 437.319 211.801 C 425.998 216.273 413.429 220.476 397.946 224.967 L 392.224 226.624 C 388.466 227.711 384.665 228.815 380.854 229.927 C 375.429 231.511 369.979 233.12 364.57 234.774 C 363.232 235.184 361.912 235.605 360.58 236.019 L 357.14 237.088 L 355.421 237.63 C 340.294 242.455 327.32 247.667 315.754 253.56 C 303.517 259.796 292.767 267.27 283.779 275.787 L 282.788 276.737 C 273.597 285.658 265.454 296.533 258.588 309.061 C 252.323 320.494 246.691 333.375 241.37 348.444 C 238.075 357.776 234.902 367.399 231.819 376.875 L 227.274 390.875 C 222.008 407.085 217.133 420.092 211.931 431.81 C 206.075 445.003 199.113 456.822 191.242 466.938 C 182.875 477.631 173.447 487.085 164.507 495.852 C 155.127 505.047 145.735 514.207 136.354 523.349 L 45.233 611.706 Z M 36.271 575.724 L 142.295 472.917 L 145.107 470.124 C 153.01 462.257 161.617 453.473 169.135 443.728 C 176.939 433.615 184.01 421.691 190.154 408.287 L 190.84 406.781 C 195.53 396.421 200.242 384.675 205.55 370.119 L 206.331 367.969 C 208.083 363.127 209.826 358.33 211.575 353.581 L 212.509 351.054 C 213.29 348.947 214.073 346.853 214.86 344.767 C 215.545 342.952 216.234 341.143 216.926 339.342 C 217.43 338.03 217.938 336.72 218.446 335.417 C 219.044 333.888 219.645 332.364 220.251 330.847 L 221.784 327.027 C 227.571 312.801 233.634 300.508 240.321 289.442 C 247.474 277.605 255.73 267.112 264.857 258.254 C 273.996 249.398 284.703 241.469 296.7 234.704 C 307.924 228.375 320.329 222.716 334.624 217.401 C 336.582 216.673 338.551 215.955 340.525 215.244 C 350.26 211.739 360.241 208.399 369.92 205.221 L 378.031 202.567 C 388.859 199.004 398.144 195.724 406.474 192.514 L 407.363 192.17 C 410.413 190.987 413.334 189.813 416.158 188.637 C 429.648 183.016 441.712 176.469 452.012 169.178 C 462.596 161.685 471.749 153.224 481.775 143.732 L 588.54 40.203 L 605.201 44.982 L 520.039 127.562 C 510.774 136.502 501.486 145.468 492.149 154.433 L 490.375 156.132 C 482.299 163.847 472.952 172.437 462.645 179.71 C 452.399 186.94 440.405 193.348 426.997 198.756 L 425.38 199.404 C 414.266 203.819 401.744 208.109 386.164 212.844 L 379.213 214.958 C 367.579 218.505 355.73 222.18 344.23 226.122 C 329.457 231.181 316.704 236.623 305.242 242.758 C 293.283 249.157 282.674 256.718 273.679 265.246 L 272.619 266.263 C 263.393 275.213 255.145 285.97 248.102 298.233 C 241.599 309.554 235.745 322.204 230.202 336.907 C 225.592 349.134 221.234 361.867 217.018 374.29 L 215.511 378.734 L 214.367 382.086 C 209.314 396.774 204.696 408.714 199.927 419.436 C 194.002 432.754 187.074 444.61 179.333 454.674 C 171.001 465.507 161.293 475.189 152.739 483.721 L 40.469 592.584 Z M 31.492 556.628 L 130.433 460.689 L 134.208 456.953 C 141.87 449.342 150.121 440.899 157.405 431.654 C 165.378 421.532 172.4 410.097 178.874 396.691 L 179.557 395.269 C 184.559 384.795 189.496 373.246 195.405 358.196 L 197.503 352.843 C 201.913 341.621 206.92 329.116 212.18 317.178 C 218.278 303.338 224.606 291.317 231.528 280.425 C 238.875 268.858 247.249 258.479 256.423 249.579 L 256.653 249.357 L 257.813 248.268 C 258.525 247.595 259.234 246.921 259.962 246.257 C 266.77 240.069 274.292 234.315 282.406 229.093 C 282.816 228.829 283.216 228.558 283.629 228.296 L 283.917 228.12 C 285.242 227.286 286.581 226.463 287.938 225.657 C 299.001 219.084 311.143 213.149 325.063 207.515 L 327.391 206.578 C 338.664 202.07 350.234 197.838 363.81 193.005 L 367.286 191.767 C 382.603 186.288 394.28 181.714 404.922 177.026 C 418.423 171.076 429.997 164.556 440.306 157.091 C 450.85 149.454 460.326 140.632 469.915 131.503 L 569.648 34.792 L 586.315 39.572 L 480.383 142.291 L 477.091 145.397 C 468.383 153.578 460.161 160.956 450.848 167.548 C 440.665 174.755 428.732 181.23 415.379 186.793 C 411.587 188.373 407.618 189.948 403.4 191.547 L 401.984 192.081 C 394.365 194.938 385.921 197.877 376.244 201.048 L 370.041 203.075 C 359.903 206.397 349.389 209.908 339.049 213.649 C 337.33 214.271 335.619 214.897 333.919 215.529 C 319.527 220.878 307.029 226.581 295.71 232.965 C 284.041 239.545 273.573 247.208 264.567 255.756 L 263.456 256.822 C 254.205 265.798 245.844 276.426 238.601 288.41 C 231.86 299.565 225.75 311.951 219.923 326.277 L 219.311 327.818 C 218.39 330.102 217.478 332.401 216.574 334.716 C 216.075 335.994 215.578 337.278 215.084 338.563 C 214.377 340.399 213.674 342.244 212.976 344.097 L 211.82 347.174 L 210.166 351.622 L 209.664 352.982 C 208.357 356.532 207.053 360.096 205.748 363.689 L 203.663 369.433 C 198.12 384.638 193.227 396.767 188.327 407.455 C 182.246 420.722 175.255 432.515 167.543 442.509 C 159.185 453.345 149.455 462.99 140.877 471.493 L 35.694 573.485 Z M 21.975 518.402 L 106.706 436.24 L 109.583 433.42 C 111.483 431.556 113.346 429.72 115.181 427.9 L 117.391 425.706 L 118.676 424.419 L 120.847 422.235 C 125.493 417.541 129.979 412.876 134.398 408.035 L 134.445 407.979 C 142.926 397.258 150.539 385.926 157.074 374.297 L 158.196 372.285 C 163.311 363.053 168.482 352.834 174.65 339.77 L 178.733 331.075 C 179.399 329.661 180.056 328.27 180.707 326.897 L 182.336 323.469 L 183.44 321.161 L 185.023 317.867 L 185.821 316.221 L 187.282 313.222 L 188.158 311.437 L 189.647 308.423 L 190.463 306.791 L 192.079 303.574 C 192.517 302.709 192.96 301.849 193.401 300.988 C 193.743 300.318 194.085 299.645 194.429 298.979 C 201.19 285.896 208.048 274.414 215.393 263.874 C 217.326 261.099 219.313 258.382 221.35 255.729 C 227.397 247.854 233.892 240.532 240.735 233.868 L 240.964 233.64 C 249.308 225.606 258.577 218.058 268.597 211.243 L 269.853 210.395 C 270.522 209.947 271.185 209.493 271.86 209.051 C 282.593 202.036 294.216 195.559 307.399 189.249 C 319.14 183.624 331.406 178.232 343.049 173.208 L 347.536 171.273 C 362.06 164.987 373.135 159.807 383.231 154.589 C 394.979 148.511 406.462 141.394 417.416 133.393 C 426.597 125.648 435.414 117.371 443.198 109.916 L 446.344 106.895 L 531.873 23.957 L 548.543 28.736 L 456.661 117.833 L 453.821 120.547 C 445.711 128.276 437.072 136.313 427.866 143.83 C 416.852 151.434 405.16 158.184 393.113 163.898 L 391.04 164.874 C 381.291 169.427 370.463 174.01 356.495 179.494 L 354.478 180.283 C 341.775 185.246 328.226 190.625 315.231 196.354 C 301.61 202.358 289.648 208.608 278.657 215.465 C 267.164 222.634 256.656 230.79 247.419 239.709 L 247.118 240.001 C 237.814 249.031 229.232 259.409 221.609 270.852 C 214.416 281.647 207.776 293.478 201.31 307.02 C 195.735 318.699 190.533 330.561 184.514 344.637 L 183.909 346.052 C 177.119 361.945 171.626 373.794 166.101 384.473 C 159.919 396.42 152.673 407.959 144.561 418.771 C 135.983 428.453 126.707 437.664 117.171 447.027 L 26.177 535.259 Z M 16.64 497.031 L 12.438 480.173 L 82.977 411.773 C 91.585 403.43 100.014 395.222 108.28 386.797 L 111.064 383.945 C 119.729 374.091 128.067 363.533 135.87 352.529 C 142.525 342.196 149.164 331.186 156.137 318.92 L 160.344 311.496 C 165.931 301.645 171.679 291.596 177.604 281.749 C 185.068 269.346 192.434 258.38 200.124 248.222 C 207.907 237.948 216.311 228.355 225.125 219.687 L 226.689 218.162 C 235.827 209.338 245.906 200.989 256.653 193.345 C 267.022 185.967 278.151 178.966 290.677 171.941 L 293.029 170.626 C 302.82 165.172 312.592 159.988 323.914 154.033 L 326.662 152.588 C 339.698 145.736 351.309 139.256 362.192 132.754 C 373.34 125.42 384.074 117.551 394.134 109.333 C 403.241 101.116 412.204 92.52 420.665 84.327 L 494.1 13.118 L 510.761 17.895 L 430.807 95.422 C 421.342 104.574 413.121 112.342 404.545 119.858 C 394.393 127.733 383.415 135.243 371.956 142.154 L 369.66 143.377 C 359.651 148.685 348.812 154.106 336.649 159.886 L 328.453 163.779 C 317.424 169.038 307.724 173.776 298.079 178.777 C 285.135 185.491 273.689 192.271 263.087 199.506 C 257.533 203.296 252.173 207.291 247.04 211.46 C 246.199 212.145 245.373 212.838 244.543 213.531 L 243.314 214.552 C 242.447 215.287 241.596 216.032 240.744 216.777 L 239.578 217.789 L 238.754 218.531 L 237.934 219.275 C 237.218 219.922 236.5 220.566 235.795 221.22 L 235.423 221.572 C 234.462 222.467 233.503 223.365 232.562 224.274 L 232.183 224.641 C 222.849 233.707 214.072 243.865 206.099 254.834 C 198.514 265.262 191.361 276.554 184.231 289.354 C 177.81 300.877 171.562 312.914 166.089 323.574 L 164.737 326.209 C 157.807 339.73 151.343 351.645 145.004 362.591 C 137.584 373.969 129.602 384.774 121.281 394.705 C 112.627 403.864 103.664 412.652 95.141 420.914 Z M 7.12 458.815 L 2.916 441.953 L 67.704 379.126 C 74.57 372.46 81.063 366.129 87.54 359.744 C 96.692 350.209 105.579 340.235 113.974 330.072 C 121.77 319.954 129.528 309.333 137.699 297.594 L 145.456 286.194 C 150.424 278.903 155.485 271.511 160.544 264.275 C 168.821 252.443 176.696 241.99 184.618 232.319 C 193.109 221.955 202.098 212.156 211.336 203.19 C 220.62 194.204 230.629 185.54 241.205 177.392 C 251.106 169.761 261.744 162.237 273.726 154.389 C 282.755 148.474 292.002 142.576 301.032 136.833 L 307.504 132.717 C 319.335 125.025 330.106 117.68 340.462 110.244 C 350.778 102.297 360.944 93.852 370.694 85.121 L 373.239 82.703 C 382.138 74.231 390.924 65.711 398.751 58.116 L 456.321 2.289 L 472.992 7.07 L 409.166 68.961 C 402.55 75.378 396.028 81.682 389.488 87.88 L 386.988 90.237 L 384.485 92.584 C 383.359 93.64 382.235 94.703 381.104 95.752 C 371.339 104.123 360.948 112.257 350.253 119.906 C 339.558 126.953 328.084 134.052 316.152 141.003 L 304.943 147.53 C 297.069 152.123 289.075 156.818 281.265 161.558 L 280.056 162.298 L 278.855 163.037 C 268.708 169.265 259.483 175.402 250.826 181.686 L 249.532 182.63 C 248.969 183.043 248.398 183.454 247.838 183.868 C 237.53 191.5 227.76 199.688 218.792 208.314 L 217.514 209.553 C 208.216 218.576 199.26 228.531 190.896 239.14 C 183.054 249.087 175.398 259.846 167.492 272.03 C 165.921 274.45 164.354 276.889 162.791 279.338 C 161.957 280.646 161.128 281.96 160.298 283.272 C 159.604 284.366 158.908 285.458 158.217 286.554 C 156.314 289.571 154.422 292.588 152.546 295.587 L 145.725 306.506 C 138.339 318.314 130.808 329.652 123.359 340.172 C 115.294 350.674 106.707 360.88 97.865 370.482 C 89.738 378.653 81.59 386.6 72.712 395.211 Z M 475.206 7.707 L 491.868 12.485 L 421.074 81.133 C 412.185 89.752 402.68 98.917 392.829 107.809 C 382.863 115.946 372.185 123.776 361.127 131.052 C 350.317 137.508 338.738 143.97 325.729 150.81 L 319.776 153.941 C 310.169 159.003 299.776 164.529 289.696 170.189 C 277.104 177.253 265.915 184.291 255.491 191.706 C 244.665 199.407 234.514 207.815 225.31 216.703 L 224.881 217.118 C 215.575 226.148 206.709 236.204 198.526 247.006 C 190.791 257.219 183.385 268.243 175.888 280.709 C 168.705 292.654 161.566 305.262 155.268 316.385 L 153.649 319.231 C 146.933 330.994 140.552 341.553 134.211 351.399 C 126.47 362.314 118.177 372.816 109.594 382.58 C 100.467 391.977 91.137 401.068 81.585 410.325 L 11.874 477.924 L 7.674 461.07 L 77.433 393.419 C 84.908 386.153 91.602 379.599 98.365 372.815 L 99.313 371.861 C 108.195 362.223 116.821 351.971 124.972 341.357 C 132.464 330.774 140.018 319.404 147.424 307.564 L 154.453 296.312 C 156.24 293.454 158.043 290.579 159.857 287.703 C 162.938 282.816 166.05 277.927 169.173 273.116 C 177.046 260.983 184.666 250.274 192.47 240.376 C 200.778 229.835 209.674 219.948 218.909 210.985 C 228.112 202.042 238.277 193.441 249.026 185.477 L 249.94 184.806 L 250.86 184.136 C 259.613 177.735 268.941 171.492 279.227 165.155 L 281.269 163.9 C 281.611 163.69 281.954 163.48 282.3 163.27 C 290.129 158.523 298.144 153.814 306.04 149.208 L 317.155 142.734 C 329.125 135.76 340.629 128.642 351.382 121.557 C 362.158 113.85 372.595 105.68 382.432 97.247 L 383.589 96.163 C 391.629 88.679 399.559 81.055 407.593 73.272 Z M 529.654 23.323 L 444.957 105.454 L 441.818 108.468 C 434.057 115.901 425.272 124.15 416.184 131.817 C 405.37 139.713 393.975 146.776 382.315 152.81 L 380.974 153.5 C 371.541 158.334 361.108 163.201 347.672 169.033 L 339.75 172.454 C 328.845 177.175 317.469 182.206 306.537 187.441 C 293.272 193.795 281.571 200.315 270.769 207.373 C 270.182 207.756 269.607 208.153 269.024 208.542 C 268.199 209.093 267.368 209.639 266.551 210.2 L 266.245 210.415 C 257.135 216.695 248.645 223.56 240.938 230.891 L 239.723 232.058 L 239.34 232.435 C 232.435 239.155 225.875 246.55 219.764 254.51 C 217.707 257.189 215.701 259.931 213.749 262.732 C 206.365 273.32 199.465 284.877 192.65 298.063 L 192.137 299.064 L 190.297 302.669 L 189.515 304.225 C 188.959 305.327 188.404 306.432 187.85 307.546 L 186.383 310.515 L 185.181 312.966 L 183.765 315.878 L 182.327 318.858 L 181.007 321.609 L 178.833 326.18 L 176.633 330.838 L 172.839 338.916 C 166.239 352.899 160.787 363.603 155.327 373.32 C 148.867 384.821 141.32 396.055 132.896 406.712 L 131.436 408.292 C 130.828 408.951 130.222 409.613 129.61 410.268 L 128.746 411.181 C 127.915 412.065 127.084 412.948 126.247 413.825 L 125.381 414.721 C 124.546 415.59 123.71 416.459 122.868 417.324 L 121.572 418.643 C 120.869 419.363 120.166 420.082 119.457 420.797 L 116.981 423.285 L 115.281 424.983 C 111.993 428.256 108.667 431.518 105.31 434.797 L 21.411 516.152 L 17.208 499.296 L 94.842 424.014 C 103.936 415.202 113.583 405.783 122.8 396.023 C 131.19 386.006 139.227 375.129 146.713 363.651 C 153.095 352.631 159.575 340.686 166.522 327.134 L 168.823 322.652 C 174.237 312.121 179.973 301.116 185.983 290.338 C 193.064 277.63 200.175 266.404 207.722 256.021 C 215.642 245.126 224.342 235.054 233.582 226.087 C 242.764 217.148 253.115 208.747 264.221 201.168 C 274.782 193.961 286.16 187.222 299.004 180.562 C 309.95 174.885 321.024 169.539 331.601 164.509 L 338.919 161.033 C 351.49 155.032 362.637 149.422 372.95 143.902 C 384.552 136.902 395.597 129.347 405.823 121.412 C 415.142 113.243 423.962 104.862 434.33 94.814 L 512.982 18.543 Z M 468.52 130.063 C 458.977 139.148 449.549 147.929 439.123 155.474 C 428.92 162.858 417.466 169.311 404.106 175.199 L 402.688 175.82 C 392.476 180.269 381.203 184.664 366.604 189.886 L 358.969 192.609 C 346.212 197.176 335.169 201.264 324.303 205.663 C 310.291 211.337 298.059 217.316 286.909 223.939 C 284.53 225.351 282.213 226.82 279.931 228.318 C 279.38 228.68 278.818 229.034 278.273 229.4 L 277.276 230.09 C 270.618 234.627 264.385 239.524 258.653 244.743 C 257.763 245.552 256.896 246.377 256.028 247.201 L 255.022 248.144 C 245.735 257.156 237.261 267.656 229.832 279.355 C 222.857 290.331 216.481 302.44 210.342 316.374 C 205.526 327.302 200.926 338.696 196.8 349.15 L 193.133 358.487 C 187.143 373.697 182.156 385.282 177.065 395.823 C 170.662 409.089 163.714 420.404 155.826 430.417 C 147.381 441.138 137.623 450.769 129.02 459.261 L 30.941 554.364 L 26.739 537.506 L 118.571 448.461 L 121.536 445.544 C 130.343 436.863 138.38 428.772 146.144 420.004 C 154.331 409.093 161.645 397.448 167.881 385.392 L 168.593 384.01 C 173.574 374.291 178.549 363.584 184.47 349.833 L 187.978 341.641 C 192.529 331.04 197.673 319.286 203.119 307.882 C 209.546 294.426 216.14 282.675 223.28 271.959 C 230.824 260.637 239.314 250.367 248.517 241.437 L 248.728 241.233 C 249.227 240.753 249.741 240.281 250.247 239.805 L 251.469 238.649 C 251.673 238.458 251.879 238.267 252.087 238.077 C 257.354 233.257 263.001 228.681 268.974 224.38 L 271.338 222.69 C 271.74 222.409 272.153 222.14 272.558 221.862 C 274.902 220.255 277.284 218.681 279.721 217.161 C 290.603 210.369 302.484 204.162 316.042 198.185 C 328.092 192.874 340.694 187.832 352.658 183.146 L 355.211 182.147 C 371.222 175.894 383.177 170.823 393.976 165.706 C 406.105 159.958 417.891 153.151 429.072 145.428 C 439.482 136.932 449.095 127.85 458.054 119.273 L 550.766 29.371 L 567.431 34.152 Z M 659.068 58.357 L 646.844 54.854 L 646.858 54.84 L 625.755 48.789 L 625.751 48.792 L 587.98 37.963 L 587.976 37.967 L 571.304 33.186 L 571.308 33.183 L 550.205 27.13 L 550.203 27.132 L 531.313 21.714 L 531.31 21.717 L 514.627 16.933 L 514.634 16.926 L 493.529 10.874 L 493.522 10.881 L 476.861 6.103 L 476.864 6.1 L 455.761 0.047 L 388.047 65.705 C 382.027 71.528 375.687 77.63 369.339 83.651 C 359.646 92.329 349.519 100.743 339.267 108.64 C 328.966 116.037 318.22 123.366 306.423 131.035 L 303.333 132.999 C 293.239 139.417 282.8 146.054 272.63 152.716 C 260.605 160.592 249.927 168.145 239.983 175.807 C 230.115 183.412 220.701 191.476 211.966 199.809 L 209.943 201.754 C 200.651 210.773 191.61 220.629 183.072 231.052 C 175.117 240.762 167.211 251.255 158.905 263.129 C 153.84 270.374 148.775 277.77 143.805 285.066 L 136.05 296.46 C 127.905 308.163 120.166 318.759 112.411 328.825 C 104.068 338.923 95.215 348.859 86.116 358.34 L 83.648 360.77 C 77.471 366.843 71.228 372.921 64.617 379.336 L 0.696 441.319 L 5.46 460.426 L 5.453 460.433 L 10.776 481.786 L 10.778 481.784 L 15.54 500.885 L 15.543 500.882 L 20.312 520.015 L 20.314 520.013 L 25.076 539.113 L 25.078 539.112 L 29.282 555.973 L 29.269 555.985 L 34.594 577.34 L 34.608 577.326 L 38.809 594.193 L 38.8 594.202 L 44.134 615.559 L 44.143 615.55 L 48.351 632.433 L 48.339 632.445 L 51.492 645.091 L 60.096 647.561 L 60.123 647.534 L 76.781 652.31 L 76.764 652.327 L 97.868 658.379 L 97.883 658.365 L 114.561 663.148 L 114.546 663.162 L 135.651 669.213 L 135.655 669.21 L 152.321 673.988 L 152.318 673.991 L 173.422 680.042 L 173.431 680.033 L 192.309 685.447 L 301.085 579.972 C 303.363 577.599 305.652 575.234 307.944 572.872 L 315.652 564.937 C 319.228 561.25 322.842 557.503 326.401 553.743 L 328.53 551.485 C 337.264 542.173 346.106 532.134 354.808 521.648 L 357.33 518.585 C 363.425 511.151 369.886 503.038 377.731 492.968 L 381.982 487.504 C 388.397 479.278 396.397 469.167 404.694 459.329 C 413.671 448.671 422.467 439.195 431.581 430.357 C 440.284 421.887 449.573 413.77 459.905 405.53 L 461.321 404.405 C 471.079 396.678 481.063 389.251 489.297 383.222 L 497.531 377.21 C 505.627 371.283 515.316 364.1 524.813 356.724 C 535.459 348.457 545.689 340.015 555.219 331.634 C 559.868 327.545 564.509 323.35 569.062 319.207 L 573.583 315.088 C 577.135 311.849 580.685 308.613 584.278 305.375 L 694.105 198.88 L 684.576 160.663 L 684.577 160.661 L 669.722 101.078 L 669.717 101.083 L 665.511 84.212 L 665.515 84.208 Z" fill="url(#idss9767850608_1g-655872362)"></path></g></svg>