<svg xmlns="http://www.w3.org/2000/svg" xmlns:xlink="http://www.w3.org/1999/xlink" viewBox="0 0 744 778"><g><defs><linearGradient id="idss12104099796_1g214254980" x1="0" x2="1" y1="0.9929785811171905" y2="0.007021418882809494"><stop offset="0" stop-color="rgba(240, 147, 67, 0)" stop-opacity="0"></stop><stop offset="0.4864864864864865" stop-color="rgba(240, 147, 67, 0.5)" stop-opacity="0.5"></stop><stop offset="1" stop-color="rgba(240, 147, 67, 0.5)" stop-opacity="0.5"></stop></linearGradient></defs><path d="M 543.751 32.352 C 518.626 12.639 489.93 2.893 455.062 2.893 C 430.148 2.893 402.078 7.874 369.933 17.751 C 348.994 24.186 329.951 29.657 312.772 34.533 C 316.889 33.504 321.113 32.456 325.456 31.379 C 343.667 26.862 364.308 21.74 387.448 15.409 C 541.454 -26.727 577.777 57.019 643.714 209.048 L 643.716 209.056 C 647.029 216.694 650.418 224.507 653.9 232.487 C 692.825 321.673 711.501 373.089 712.356 424.065 C 713.227 475.844 696.177 525.982 649.451 609.056 C 602.712 692.151 569.962 730.536 528.612 750.68 C 527.341 751.299 526.063 751.899 524.776 752.482 C 537.625 748.998 549.288 744.554 560.321 738.905 C 603.576 716.764 636.76 676.916 682.762 591.882 C 728.765 506.847 744.509 456.253 740.849 405.206 C 737.241 354.871 714.327 304.836 667.519 218.312 C 663.313 210.536 659.218 202.923 655.215 195.48 L 655.21 195.47 C 615.871 122.332 584.801 64.563 543.751 32.352 Z M 498.18 758.11 C 500.485 757.741 502.752 757.351 504.983 756.94 C 512.858 754.542 520.312 751.624 527.516 748.115 C 568.32 728.236 600.756 690.154 647.186 607.605 C 693.629 525.036 710.576 475.306 709.717 424.117 C 708.869 373.647 690.27 322.497 651.506 233.676 C 648.187 226.072 644.954 218.619 641.79 211.326 L 641.32 210.24 L 641.317 210.233 L 641.317 210.233 C 608.763 135.174 583.048 75.887 546.92 41.62 C 522.729 18.671 494.01 7.429 457.663 7.429 C 437.104 7.429 414.101 11.027 388.105 18.14 C 368.683 23.453 351.026 27.913 335.089 31.881 C 338.781 31.095 342.568 30.296 346.456 29.476 L 346.463 29.474 L 346.467 29.474 L 346.536 29.459 C 363.471 25.887 382.661 21.839 404.202 16.713 C 547.893 -17.483 577.165 68.034 630.305 223.28 L 630.31 223.296 L 630.337 223.375 C 632.999 231.149 635.721 239.101 638.52 247.225 C 669.904 338.279 684.541 390.576 682.827 441.505 C 681.088 493.236 662.967 542.418 615.971 622.964 C 569.035 703.409 537.083 740.077 498.18 758.11 Z M 476.261 760.936 C 479.939 760.564 483.523 760.157 487.021 759.711 C 490.381 758.481 493.676 757.118 496.926 755.618 C 534.877 738.102 567.626 700.49 613.73 621.475 C 660.455 541.392 678.467 492.588 680.188 441.405 C 681.884 390.945 667.303 338.899 636.041 248.198 C 633.472 240.742 630.968 233.432 628.517 226.271 L 628.512 226.261 L 628.512 226.26 L 627.829 224.263 C 601.599 147.63 580.879 87.102 549.372 51.029 C 516.38 13.253 471.785 3.515 404.778 19.464 C 386.753 23.753 370.378 27.288 355.593 30.419 C 358.936 29.84 362.36 29.253 365.875 28.651 L 365.969 28.634 C 381.693 25.938 399.511 22.882 419.537 18.873 C 553.368 -7.918 576.074 79.013 617.293 236.825 L 617.296 236.838 C 619.366 244.761 621.482 252.867 623.662 261.147 C 648.028 353.679 658.909 406.647 654.84 457.401 C 650.759 508.293 631.046 558.125 584.53 635.136 C 540.313 708.338 510.135 743.644 476.261 760.936 Z M 455.359 762.627 C 459.729 762.351 463.976 762.041 468.107 761.692 C 468.224 761.642 468.34 761.592 468.456 761.541 C 504.161 746.006 536.084 710.138 582.31 633.608 C 629.172 556.028 648.116 508.205 652.209 457.162 C 656.243 406.839 645.397 354.107 621.119 261.91 C 619.09 254.2 617.116 246.643 615.182 239.243 L 615.181 239.238 L 614.751 237.594 L 614.75 237.586 L 614.748 237.586 C 594.408 159.708 578.342 98.194 551.164 60.551 C 529.872 31.059 501.842 16.927 462.946 16.927 C 449.911 16.927 435.651 18.515 420.025 21.644 C 403.338 24.985 388.189 27.663 374.507 30.022 C 377.514 29.628 380.594 29.23 383.75 28.822 C 398.349 26.937 414.896 24.798 433.522 21.819 C 557.931 1.915 574.533 89.912 604.668 249.651 L 604.672 249.67 L 604.734 249.997 L 604.738 250.02 C 606.23 257.931 607.756 266.02 609.33 274.283 C 627.176 367.925 634.574 421.372 628.347 471.832 C 622.105 522.427 601.554 571.168 555.045 645.677 C 513.597 712.076 485.111 745.858 455.359 762.627 Z M 434.838 763.641 C 439.563 763.463 444.155 763.257 448.622 763.019 C 479.719 747.645 509.678 713.27 552.847 644.112 C 599.712 569.035 619.465 522.242 625.729 471.462 C 630.653 431.574 629.065 391.98 606.742 274.844 C 605.144 266.458 603.595 258.251 602.082 250.227 C 587.212 171.402 575.466 109.141 552.34 70.148 C 528.179 29.414 491.654 15.374 433.914 24.605 C 418.452 27.079 404.43 28.973 391.764 30.623 C 394.499 30.388 397.297 30.153 400.165 29.913 L 400.173 29.912 L 400.173 29.912 L 400.199 29.91 L 400.199 29.91 C 413.696 28.777 428.992 27.494 446.239 25.475 C 561.648 11.979 572.585 100.721 592.441 261.824 L 592.442 261.844 L 592.506 262.352 C 593.482 270.277 594.481 278.38 595.516 286.655 C 607.318 381.076 611.493 434.82 603.302 484.874 C 595.087 535.067 573.818 582.675 527.441 654.681 C 488.425 715.26 461.435 747.418 434.838 763.641 Z M 362.659 764.565 C 365.725 764.574 368.839 764.578 371.999 764.578 C 392.897 764.578 411.722 764.388 428.836 763.847 C 456.467 748.767 484.724 716.028 525.265 653.084 C 572.006 580.513 592.451 534.792 600.7 484.39 C 607.18 444.798 607.665 405.166 592.899 287.028 C 591.862 278.738 590.861 270.623 589.882 262.685 L 589.882 262.682 L 589.824 262.211 C 580.027 182.72 572.288 119.933 552.948 79.794 C 535.584 43.757 508.859 26.966 467.693 26.966 C 461.025 26.966 453.975 27.406 446.528 28.278 C 429.295 30.294 414.018 31.577 400.531 32.71 L 400.531 32.71 L 400.531 32.71 L 400.379 32.722 L 400.379 32.723 C 321.766 39.321 295.283 41.544 219.549 159.129 C 172.004 232.95 147.139 276.551 134.431 324.664 C 121.535 373.487 121.041 426.044 132.609 518.585 C 144.019 609.867 157.232 657.286 179.732 687.707 C 202.137 717.997 234.232 732.955 293.385 753.189 C 295.581 753.938 297.74 754.671 299.864 755.387 C 301.979 755.944 304.127 756.504 306.308 757.069 C 308.708 757.69 311.07 758.296 313.395 758.885 C 315.745 759.329 318.132 759.773 320.556 760.22 C 323.206 760.709 325.813 761.184 328.379 761.645 C 330.948 761.955 333.556 762.265 336.203 762.575 C 339.137 762.919 342.023 763.252 344.862 763.572 C 347.641 763.737 350.462 763.899 353.324 764.059 C 356.487 764.236 359.597 764.405 362.659 764.565 Z M 326.764 766.974 C 260.141 765.51 218.185 759.696 182.536 741.447 C 138.745 719.031 105.25 678.877 58.95 593.291 C 12.649 507.706 -3.187 456.67 0.518 404.988 C 4.165 354.114 27.181 303.803 74.193 216.903 C 149.402 77.878 188.045 66.935 302.752 34.457 L 302.823 34.436 C 322.337 28.911 344.447 22.649 369.202 15.042 C 533.979 -35.592 577.854 45.983 657.503 194.07 L 657.504 194.074 C 661.508 201.518 665.602 209.13 669.809 216.903 C 716.82 303.803 739.835 354.113 743.481 404.988 C 747.187 456.67 731.351 507.706 685.051 593.291 C 638.749 678.877 605.254 719.031 561.464 741.447 C 544.833 749.96 526.831 755.766 505.593 759.689 C 496.472 762.46 486.799 764.541 476.311 766.042 C 467.803 768.337 458.825 769.916 449.128 770.875 C 441.206 772.727 432.888 773.842 423.943 774.305 C 416.543 775.753 408.815 776.443 400.538 776.443 C 400.4 776.443 400.262 776.443 400.124 776.441 C 395.277 777.153 390.331 777.487 385.267 777.487 C 367.482 777.487 348.253 773.363 326.764 766.974 Z M 302.732 763.379 C 246.704 758.42 210.614 750.278 180.306 731.199 C 141.154 706.552 112.344 664.725 74.002 576.87 C 35.668 489.038 23.623 437.273 29.559 385.875 C 35.403 335.276 59.013 286.225 106.459 201.867 C 159.203 108.091 192.706 75.142 244.121 54.864 C 173.012 78.631 136.453 107.451 76.48 218.312 C 29.673 304.836 6.76 354.872 3.152 405.206 C -0.508 456.253 15.235 506.847 61.238 591.882 C 107.241 676.916 140.425 716.764 183.679 738.905 C 214.444 754.656 250.107 761.042 302.732 763.379 Z M 178.749 720.835 C 205.712 741.486 238.529 751.476 289.885 759.315 C 241.604 754.282 209.14 746.078 181.649 728.772 C 143.013 704.449 114.486 662.956 76.395 575.682 C 38.296 488.382 26.311 437.033 32.182 386.221 C 37.967 336.126 61.472 287.327 108.724 203.317 C 169.087 95.995 204.053 68.952 270.176 48.894 C 222.139 66.533 189.765 97.796 136.84 188.506 C 89.116 270.301 65.022 318.065 57.172 368.282 C 49.202 419.281 57.728 471.579 88.635 561.244 C 119.553 650.948 143.977 694.2 178.749 720.835 Z M 277.925 754.539 C 231.205 744.075 201.569 732.404 177.819 710.403 C 147.172 682.013 126.852 637.564 102.847 546.398 C 78.855 455.288 73.585 402.639 83.405 352.138 C 93.076 302.407 117.551 255.952 165.406 176.73 C 218.375 89.037 249.64 59.412 294.504 44.23 C 233.076 60.858 199.651 86.187 139.082 189.997 C 91.546 271.47 67.554 318.998 59.778 368.745 C 51.891 419.208 60.384 471.117 91.114 560.27 C 121.435 648.24 146.437 692.615 180.289 718.545 C 204.632 737.189 233.974 747.039 277.925 754.539 Z M 177.471 699.934 C 199.126 724.147 228.498 737.459 265.891 748.828 C 226.759 739.17 200.707 727.871 179.551 708.275 C 149.727 680.646 128.935 635.047 105.389 545.636 C 81.524 455.009 76.267 402.721 85.992 352.712 C 95.577 303.417 119.953 257.181 167.625 178.258 C 228.185 77.997 260.117 54.281 317.05 40.818 C 275.235 53.723 245.065 81.784 192.225 166.436 C 144.38 243.087 119.616 288.215 108.296 337.367 C 96.802 387.276 99.062 440.111 116.633 532.311 C 134.216 624.576 150.705 670.006 177.471 699.934 Z M 256.395 742.8 C 222.65 729.533 196.354 714.728 177.658 689.453 C 154.539 658.195 141.618 611.986 129.991 518.956 C 118.371 425.996 118.885 373.13 131.889 323.899 C 138.29 299.662 148.163 275.404 162.963 247.551 C 176.925 221.275 194.811 192.562 217.373 157.532 C 270.006 75.813 299.105 49.291 338.09 38.517 C 285.335 49.054 254.85 71.19 194.424 167.997 C 146.751 244.371 122.087 289.296 110.86 338.041 C 99.469 387.5 101.735 440.001 119.22 531.75 C 136.47 622.258 153.337 668.867 179.381 697.987 C 197.793 718.575 221.088 731.176 256.395 742.8 Z" fill="url(#idss12104099796_1g214254980)"></path></g></svg>